%FSLAX34Y34*%
%MOMM*%
%LNCOPPER_BOTTOM*%
G71*
G01*
%ADD10C, 1.600*%
%ADD11C, 1.800*%
%ADD12C, 2.000*%
%ADD13C, 3.000*%
%ADD14C, 0.400*%
%ADD15C, 1.400*%
%ADD16C, 0.800*%
%ADD17C, 1.900*%
%ADD18C, 1.000*%
%ADD19C, 1.200*%
%ADD20C, 0.000*%
%ADD21R, 0.500X0.500*%
%ADD22C, 0.600*%
%ADD23C, 1.600*%
%ADD24R, 1.600X1.600*%
%ADD25C, 0.238*%
%ADD26C, 0.150*%
%LPD*%
X330200Y215900D02*
G54D10*
D03*
X330200Y241300D02*
G54D10*
D03*
X330200Y266700D02*
G54D10*
D03*
X330200Y292100D02*
G54D10*
D03*
X330200Y317500D02*
G54D10*
D03*
X330200Y342900D02*
G54D10*
D03*
X330200Y368300D02*
G54D10*
D03*
X330200Y393700D02*
G54D10*
D03*
X330200Y419100D02*
G54D10*
D03*
X330200Y444500D02*
G54D10*
D03*
X330200Y469900D02*
G54D10*
D03*
X330200Y495300D02*
G54D10*
D03*
X330200Y520700D02*
G54D10*
D03*
X330200Y546100D02*
G54D10*
D03*
X330200Y571500D02*
G54D10*
D03*
X177800Y215900D02*
G54D10*
D03*
X177800Y241300D02*
G54D10*
D03*
X177800Y266700D02*
G54D10*
D03*
X177800Y292100D02*
G54D10*
D03*
X177800Y317500D02*
G54D10*
D03*
X177800Y342900D02*
G54D10*
D03*
X177800Y368300D02*
G54D10*
D03*
X177800Y393700D02*
G54D10*
D03*
X177800Y419100D02*
G54D10*
D03*
X177800Y444500D02*
G54D10*
D03*
X177800Y469899D02*
G54D10*
D03*
X177800Y495300D02*
G54D10*
D03*
X177800Y520700D02*
G54D10*
D03*
X177800Y546100D02*
G54D10*
D03*
X177800Y571500D02*
G54D10*
D03*
X330200Y546100D02*
G54D10*
D03*
X177798Y495303D02*
G54D10*
D03*
X368300Y254000D02*
G54D11*
D03*
X368300Y226700D02*
G54D11*
D03*
X394650Y240350D02*
G54D11*
D03*
X381000Y292100D02*
G54D11*
D03*
X381000Y368300D02*
G54D11*
D03*
X177800Y939800D02*
G54D12*
D03*
X177800Y838200D02*
G54D12*
D03*
X146050Y838200D02*
G54D12*
D03*
X146050Y736600D02*
G54D12*
D03*
X114300Y939800D02*
G54D12*
D03*
X114300Y787400D02*
G54D12*
D03*
G36*
X53500Y523400D02*
X53500Y543400D01*
X73500Y543400D01*
X73500Y523400D01*
X53500Y523400D01*
G37*
X88900Y533400D02*
G54D12*
D03*
X114300Y533400D02*
G54D12*
D03*
X63500Y609600D02*
G54D12*
D03*
X88900Y609600D02*
G54D12*
D03*
X114300Y609600D02*
G54D12*
D03*
X50800Y711200D02*
G54D13*
D03*
X51300Y750700D02*
G54D13*
D03*
X50800Y790200D02*
G54D13*
D03*
X51300Y829700D02*
G54D13*
D03*
X381000Y787400D02*
G54D11*
D03*
X279400Y787400D02*
G54D11*
D03*
X241300Y711200D02*
G54D11*
D03*
X241300Y838200D02*
G54D11*
D03*
X266700Y584200D02*
G54D11*
D03*
X266700Y711200D02*
G54D11*
D03*
X177800Y787400D02*
G54D12*
D03*
X177800Y685800D02*
G54D12*
D03*
X381000Y673100D02*
G54D11*
D03*
X381000Y571500D02*
G54D11*
D03*
X139700Y469900D02*
G54D10*
D03*
X139700Y368300D02*
G54D10*
D03*
X381000Y520700D02*
G54D12*
D03*
X381000Y495700D02*
G54D12*
D03*
X381000Y470700D02*
G54D12*
D03*
X114300Y304800D02*
G54D10*
D03*
X114300Y368300D02*
G54D10*
D03*
X838200Y101600D02*
G54D10*
D03*
X838200Y127000D02*
G54D10*
D03*
X838200Y152400D02*
G54D10*
D03*
X838200Y177800D02*
G54D10*
D03*
X838200Y203200D02*
G54D10*
D03*
X838200Y228600D02*
G54D10*
D03*
X838200Y254000D02*
G54D10*
D03*
X838200Y279400D02*
G54D10*
D03*
X838200Y304800D02*
G54D10*
D03*
X838200Y330200D02*
G54D10*
D03*
X838200Y355600D02*
G54D10*
D03*
X838200Y381000D02*
G54D10*
D03*
X838200Y406400D02*
G54D10*
D03*
X838200Y431800D02*
G54D10*
D03*
X838200Y457200D02*
G54D10*
D03*
X685800Y101600D02*
G54D10*
D03*
X685800Y127000D02*
G54D10*
D03*
X685800Y152400D02*
G54D10*
D03*
X685800Y177800D02*
G54D10*
D03*
X685800Y203200D02*
G54D10*
D03*
X685800Y228600D02*
G54D10*
D03*
X685800Y254000D02*
G54D10*
D03*
X685800Y279400D02*
G54D10*
D03*
X685800Y304800D02*
G54D10*
D03*
X685800Y330200D02*
G54D10*
D03*
X685800Y355600D02*
G54D10*
D03*
X685800Y381000D02*
G54D10*
D03*
X685800Y406400D02*
G54D10*
D03*
X685800Y431800D02*
G54D10*
D03*
X685800Y457200D02*
G54D10*
D03*
G36*
X834880Y423800D02*
X830200Y428480D01*
X830200Y435120D01*
X834880Y439800D01*
X841520Y439800D01*
X846200Y435120D01*
X846200Y428480D01*
X841520Y423800D01*
X834880Y423800D01*
G37*
G36*
X682478Y373003D02*
X677798Y377683D01*
X677798Y384323D01*
X682478Y389003D01*
X689118Y389003D01*
X693798Y384323D01*
X693798Y377683D01*
X689118Y373003D01*
X682478Y373003D01*
G37*
G54D14*
X685800Y254000D02*
X558800Y254000D01*
X558800Y228600D01*
G54D14*
X685800Y279400D02*
X666750Y279400D01*
X666750Y266700D01*
X533400Y266700D01*
X533400Y228600D01*
G54D15*
X508000Y155575D02*
X508000Y76200D01*
G54D16*
X609600Y127000D02*
X685800Y127000D01*
G54D14*
X558800Y152400D02*
X558800Y180975D01*
X666750Y180975D01*
X666750Y177800D01*
X685800Y177800D01*
G54D14*
X533400Y152400D02*
X533400Y190500D01*
X666750Y190500D01*
X666750Y203200D01*
X685800Y203200D01*
G54D14*
X584200Y152400D02*
X584200Y171450D01*
X654050Y171450D01*
X654050Y152400D01*
X685800Y152400D01*
G54D14*
X584200Y228600D02*
X584200Y209550D01*
X654050Y209550D01*
X654050Y228600D01*
X685800Y228600D01*
X889000Y355600D02*
G54D10*
D03*
X889000Y330200D02*
G54D10*
D03*
X889000Y304800D02*
G54D10*
D03*
X889000Y279400D02*
G54D10*
D03*
X889000Y254000D02*
G54D10*
D03*
X889000Y228600D02*
G54D10*
D03*
X889000Y203200D02*
G54D10*
D03*
X889000Y177800D02*
G54D10*
D03*
X889000Y152400D02*
G54D10*
D03*
G54D15*
X838200Y381000D02*
X889000Y381000D01*
G54D16*
X838200Y254000D02*
X889000Y254000D01*
X939800Y254000D01*
G54D16*
X838200Y228600D02*
X889000Y228600D01*
G54D16*
X889000Y228600D02*
X939800Y228600D01*
G54D16*
X838200Y203200D02*
X889000Y203200D01*
G54D16*
X889000Y203200D02*
X939800Y203200D01*
G54D16*
X838200Y177800D02*
X889000Y177800D01*
X939800Y177800D01*
G54D16*
X838200Y279400D02*
X889000Y279400D01*
G54D16*
X838200Y304800D02*
X889000Y304800D01*
G54D15*
X889000Y381000D02*
X939800Y381000D01*
X939800Y279400D01*
G54D16*
X889000Y381000D02*
X889000Y419100D01*
G54D15*
X939800Y419100D02*
X977900Y419100D01*
X977900Y152400D01*
X939800Y152400D01*
G54D16*
X838200Y431800D02*
X863600Y431800D01*
X863600Y444500D01*
X939800Y444500D01*
X939800Y419100D01*
G54D15*
X508000Y155575D02*
X508000Y231775D01*
G54D15*
X889000Y38100D02*
X889000Y114300D01*
X977900Y114300D01*
X977900Y152400D01*
G54D14*
X774700Y254000D02*
X812800Y254000D01*
X812800Y317500D01*
X863600Y317500D01*
X863600Y330200D01*
X889000Y330200D01*
G54D14*
X685800Y279400D02*
X800100Y279400D01*
X800100Y342900D01*
X863600Y342900D01*
X863600Y355600D01*
X889000Y355600D01*
G54D14*
X774700Y228600D02*
X812800Y228600D01*
X812800Y165100D01*
X863600Y165100D01*
X863600Y152400D01*
X889000Y152400D01*
X584200Y330200D02*
G54D17*
D03*
X558800Y330200D02*
G54D17*
D03*
X533400Y330200D02*
G54D17*
D03*
X508000Y330200D02*
G54D17*
D03*
X558800Y292100D02*
G54D18*
D03*
X584200Y279400D02*
G54D18*
D03*
G54D16*
X558800Y292100D02*
X558800Y330200D01*
G54D16*
X584200Y279400D02*
X584200Y330200D01*
G54D15*
X508000Y231775D02*
X508000Y330200D01*
G54D15*
X508000Y330200D02*
X508000Y355600D01*
X533400Y381000D01*
X533400Y406400D01*
X533400Y431800D01*
X508000Y457200D01*
X508000Y482600D01*
G54D16*
X558800Y330200D02*
X558800Y406400D01*
G54D16*
X584200Y330200D02*
X584200Y406400D01*
G54D15*
X508000Y406400D02*
X482600Y406400D01*
X482600Y114300D01*
X444500Y114300D01*
X444500Y38100D01*
X889000Y38100D01*
G54D15*
X482600Y577850D02*
X482600Y406400D01*
X838200Y736600D02*
G54D10*
D03*
X838200Y762000D02*
G54D10*
D03*
X838200Y685800D02*
G54D10*
D03*
X838200Y711200D02*
G54D10*
D03*
X838200Y635000D02*
G54D10*
D03*
X838200Y660400D02*
G54D10*
D03*
X838200Y584200D02*
G54D10*
D03*
X838200Y609600D02*
G54D10*
D03*
X711200Y635000D02*
G54D10*
D03*
X711200Y660400D02*
G54D10*
D03*
X711200Y584200D02*
G54D10*
D03*
X711200Y609600D02*
G54D10*
D03*
X711200Y736600D02*
G54D10*
D03*
X711200Y762000D02*
G54D10*
D03*
X711200Y685800D02*
G54D10*
D03*
X711200Y711200D02*
G54D10*
D03*
G54D19*
X838200Y711200D02*
X939800Y711200D01*
G54D19*
X838200Y685800D02*
X939800Y685800D01*
G54D19*
X838200Y660400D02*
X939800Y660400D01*
G54D19*
X838200Y635000D02*
X939800Y635000D01*
G54D15*
X838200Y584200D02*
X977900Y584200D01*
X977900Y406400D01*
G54D15*
X838200Y609600D02*
X787400Y609600D01*
X787400Y381000D01*
X838200Y381000D01*
G54D15*
X838200Y736600D02*
X977900Y736600D01*
X977900Y584200D01*
G54D16*
X685800Y304800D02*
X762000Y304800D01*
X762000Y609600D01*
X711200Y609600D01*
G54D15*
X711200Y635000D02*
X787400Y635000D01*
X787400Y609600D01*
G54D15*
X914400Y533400D02*
X787400Y533400D01*
G54D15*
X482600Y577850D02*
X482600Y609600D01*
G54D15*
X977900Y736600D02*
X977900Y838200D01*
X965200Y838200D01*
G54D15*
X889000Y838200D02*
X838200Y838200D01*
X838200Y762000D01*
G54D15*
X482600Y609600D02*
X482600Y635000D01*
G54D15*
X533400Y635000D02*
X711200Y635000D01*
G54D16*
X685800Y330200D02*
X736600Y330200D01*
G54D15*
X508000Y482600D02*
X508000Y635000D01*
X533400Y635000D01*
X609600Y927100D02*
G54D12*
D03*
X660400Y927100D02*
G54D12*
D03*
G54D15*
X482600Y635000D02*
X482600Y927100D01*
X482600Y762000D02*
G54D10*
D03*
X584200Y762000D02*
G54D10*
D03*
X622300Y812800D02*
G54D10*
D03*
X622300Y762000D02*
G54D10*
D03*
X584200Y660400D02*
G54D10*
D03*
X635000Y660400D02*
G54D10*
D03*
X660400Y660400D02*
G54D10*
D03*
X660400Y558800D02*
G54D10*
D03*
G54D16*
X482600Y787400D02*
X482600Y787400D01*
G54D16*
X660400Y558800D02*
X660400Y508000D01*
X736600Y508000D01*
X736600Y330200D01*
G54D15*
X838200Y838200D02*
X914400Y838200D01*
G54D15*
X863600Y927100D02*
X863600Y965200D01*
X482600Y965200D01*
X482600Y927100D01*
X939800Y635000D02*
G54D17*
D03*
X939800Y660400D02*
G54D17*
D03*
X939800Y685800D02*
G54D17*
D03*
X939800Y711200D02*
G54D17*
D03*
X76200Y444500D02*
G54D17*
D03*
X76200Y419100D02*
G54D17*
D03*
X76200Y393700D02*
G54D17*
D03*
X76200Y368300D02*
G54D17*
D03*
X76200Y469900D02*
G54D17*
D03*
X76200Y330200D02*
G54D17*
D03*
X76200Y304800D02*
G54D17*
D03*
X76200Y279400D02*
G54D17*
D03*
X76200Y254000D02*
G54D17*
D03*
X584200Y711200D02*
G54D17*
D03*
X558800Y711200D02*
G54D17*
D03*
X533400Y711200D02*
G54D17*
D03*
X508000Y711200D02*
G54D17*
D03*
X609600Y711200D02*
G54D17*
D03*
X863600Y927100D02*
G54D12*
D03*
X838200Y927100D02*
G54D12*
D03*
G36*
X879000Y391000D02*
X899000Y391000D01*
X899000Y371000D01*
X879000Y371000D01*
X879000Y391000D01*
G37*
G54D16*
X584200Y482600D02*
X584200Y457200D01*
X685800Y457200D01*
X482600Y635000D02*
G54D12*
D03*
X533400Y635000D02*
G54D12*
D03*
X533400Y927100D02*
G54D12*
D03*
X508000Y927100D02*
G54D12*
D03*
G54D16*
X635000Y355600D02*
X635000Y381000D01*
X685800Y381000D01*
G54D16*
X533400Y431800D02*
X635000Y431800D01*
X635000Y406400D01*
G36*
X374619Y391350D02*
X376219Y389750D01*
X385019Y389750D01*
X386519Y391350D01*
X386519Y395250D01*
X385019Y396850D01*
X376219Y396850D01*
X374619Y395250D01*
X374619Y391350D01*
G37*
G54D20*
X374619Y391350D02*
X376219Y389750D01*
X385019Y389750D01*
X386519Y391350D01*
X386519Y395250D01*
X385019Y396850D01*
X376219Y396850D01*
X374619Y395250D01*
X374619Y391350D01*
X381000Y393700D02*
G54D21*
D03*
G36*
X374619Y404050D02*
X376219Y402450D01*
X385019Y402450D01*
X386519Y404050D01*
X386519Y407950D01*
X385019Y409550D01*
X376219Y409550D01*
X374619Y407950D01*
X374619Y404050D01*
G37*
G54D20*
X374619Y404050D02*
X376219Y402450D01*
X385019Y402450D01*
X386519Y404050D01*
X386519Y407950D01*
X385019Y409550D01*
X376219Y409550D01*
X374619Y407950D01*
X374619Y404050D01*
G36*
X374619Y416750D02*
X376219Y415150D01*
X385019Y415150D01*
X386519Y416750D01*
X386519Y420650D01*
X385019Y422250D01*
X376219Y422250D01*
X374619Y420650D01*
X374619Y416750D01*
G37*
G54D20*
X374619Y416750D02*
X376219Y415150D01*
X385019Y415150D01*
X386519Y416750D01*
X386519Y420650D01*
X385019Y422250D01*
X376219Y422250D01*
X374619Y420650D01*
X374619Y416750D01*
G36*
X374619Y429450D02*
X376219Y427850D01*
X385019Y427850D01*
X386519Y429450D01*
X386519Y433350D01*
X385019Y434950D01*
X376219Y434950D01*
X374619Y433350D01*
X374619Y429450D01*
G37*
G54D20*
X374619Y429450D02*
X376219Y427850D01*
X385019Y427850D01*
X386519Y429450D01*
X386519Y433350D01*
X385019Y434950D01*
X376219Y434950D01*
X374619Y433350D01*
X374619Y429450D01*
X381000Y406400D02*
G54D21*
D03*
X381000Y419100D02*
G54D21*
D03*
X381000Y431800D02*
G54D21*
D03*
G36*
X445319Y395250D02*
X443719Y396850D01*
X434919Y396850D01*
X433419Y395250D01*
X433419Y391350D01*
X434919Y389750D01*
X443719Y389750D01*
X445319Y391350D01*
X445319Y395250D01*
G37*
G54D20*
X445319Y395250D02*
X443719Y396850D01*
X434919Y396850D01*
X433419Y395250D01*
X433419Y391350D01*
X434919Y389750D01*
X443719Y389750D01*
X445319Y391350D01*
X445319Y395250D01*
G36*
X445319Y407950D02*
X443719Y409550D01*
X434919Y409550D01*
X433419Y407950D01*
X433419Y404050D01*
X434919Y402450D01*
X443719Y402450D01*
X445319Y404050D01*
X445319Y407950D01*
G37*
G54D20*
X445319Y407950D02*
X443719Y409550D01*
X434919Y409550D01*
X433419Y407950D01*
X433419Y404050D01*
X434919Y402450D01*
X443719Y402450D01*
X445319Y404050D01*
X445319Y407950D01*
G36*
X445319Y420650D02*
X443719Y422250D01*
X434919Y422250D01*
X433419Y420650D01*
X433419Y416750D01*
X434919Y415150D01*
X443719Y415150D01*
X445319Y416750D01*
X445319Y420650D01*
G37*
G54D20*
X445319Y420650D02*
X443719Y422250D01*
X434919Y422250D01*
X433419Y420650D01*
X433419Y416750D01*
X434919Y415150D01*
X443719Y415150D01*
X445319Y416750D01*
X445319Y420650D01*
G36*
X445319Y433350D02*
X443719Y434950D01*
X434919Y434950D01*
X433419Y433350D01*
X433419Y429450D01*
X434919Y427850D01*
X443719Y427850D01*
X445319Y429450D01*
X445319Y433350D01*
G37*
G54D20*
X445319Y433350D02*
X443719Y434950D01*
X434919Y434950D01*
X433419Y433350D01*
X433419Y429450D01*
X434919Y427850D01*
X443719Y427850D01*
X445319Y429450D01*
X445319Y433350D01*
X438150Y392906D02*
G54D21*
D03*
X438150Y405606D02*
G54D21*
D03*
X438150Y418306D02*
G54D21*
D03*
X438150Y431006D02*
G54D21*
D03*
G54D22*
X444500Y431800D02*
X482600Y431800D01*
X463550Y292100D02*
G54D18*
D03*
X450850Y279400D02*
G54D18*
D03*
X438150Y330200D02*
G54D18*
D03*
X292100Y355600D02*
G54D23*
D03*
G54D14*
X438150Y419100D02*
X463550Y419100D01*
X463550Y292100D01*
G54D14*
X438150Y406400D02*
X450850Y406400D01*
X450850Y279400D01*
G54D22*
X438150Y393700D02*
X438150Y330200D01*
G54D15*
X50800Y749300D02*
X114300Y749300D01*
X146050Y736600D01*
G54D15*
X50800Y787400D02*
X190500Y787400D01*
G54D15*
X50800Y711200D02*
X25400Y711200D01*
X25400Y533400D01*
G54D15*
X25400Y533400D02*
X25400Y330200D01*
G36*
X360300Y93600D02*
X360300Y109600D01*
X376300Y109600D01*
X376300Y93600D01*
X360300Y93600D01*
G37*
X393800Y101600D02*
G54D10*
D03*
X368300Y178100D02*
G54D10*
D03*
X393800Y178100D02*
G54D10*
D03*
G54D16*
X558800Y571500D02*
X584200Y571500D01*
X584200Y546100D01*
X609600Y546100D01*
G54D16*
X558800Y546100D02*
X558800Y482600D01*
G54D16*
X609600Y571500D02*
X635000Y571500D01*
X635000Y479425D01*
X711200Y479425D01*
X711200Y431800D01*
X685800Y431800D01*
X558800Y596900D02*
G54D10*
D03*
X558800Y546100D02*
G54D10*
D03*
X558800Y571500D02*
G54D10*
D03*
X609600Y596900D02*
G54D10*
D03*
X609600Y546100D02*
G54D10*
D03*
X609600Y571500D02*
G54D10*
D03*
G36*
X391000Y949800D02*
X391000Y929800D01*
X371000Y929800D01*
X371000Y949800D01*
X391000Y949800D01*
G37*
G36*
X340200Y949800D02*
X340200Y929800D01*
X320200Y929800D01*
X320200Y949800D01*
X340200Y949800D01*
G37*
G36*
X340200Y683100D02*
X340200Y663100D01*
X320200Y663100D01*
X320200Y683100D01*
X340200Y683100D01*
G37*
G36*
X238600Y683100D02*
X238600Y663100D01*
X218600Y663100D01*
X218600Y683100D01*
X238600Y683100D01*
G37*
G54D15*
X190500Y787400D02*
X279400Y787400D01*
G54D15*
X838200Y927100D02*
X838200Y838200D01*
G54D15*
X863600Y927100D02*
X863600Y876300D01*
X965200Y876300D01*
X965200Y838200D01*
G54D15*
X812806Y838200D02*
X812800Y800100D01*
X812800Y736600D01*
X838200Y736600D01*
G54D15*
X114300Y939800D02*
X177800Y939800D01*
G54D15*
X330200Y939800D02*
X330200Y673100D01*
G54D15*
X50800Y825500D02*
X76200Y838200D01*
X139700Y838200D01*
X165100Y838200D01*
X241300Y838200D01*
G54D15*
X241300Y838200D02*
X241300Y977900D01*
X381000Y977900D01*
X381000Y939800D01*
X469900Y38100D02*
G54D11*
D03*
X368300Y38100D02*
G54D11*
D03*
G54D16*
X711200Y736600D02*
X762000Y736600D01*
G54D16*
X711200Y711200D02*
X762000Y711200D01*
G54D16*
X711200Y685800D02*
X762000Y685800D01*
G54D15*
X787400Y736600D02*
X787400Y711200D01*
X787400Y685800D01*
X787400Y635000D01*
G54D16*
X509358Y850646D02*
X482854Y850646D01*
X482600Y850900D01*
G54D16*
X509358Y800646D02*
X483146Y800646D01*
X482600Y800100D01*
G54D16*
X584200Y825500D02*
X558800Y825500D01*
X558800Y825500D01*
X558800Y736600D01*
X584200Y736600D01*
X584200Y711200D01*
G54D16*
X508000Y711200D02*
X482600Y711200D01*
G54D16*
X584200Y762000D02*
X622300Y762000D01*
G54D16*
X584358Y800646D02*
X622300Y800100D01*
X622300Y812800D01*
G54D16*
X622300Y812800D02*
X635000Y812800D01*
X635000Y927100D01*
X660400Y927100D01*
G54D16*
X609600Y927100D02*
X533400Y927100D01*
G54D16*
X509358Y825646D02*
X533254Y825646D01*
X533400Y825500D01*
X533400Y711200D01*
G54D14*
X749300Y254000D02*
X685800Y254000D01*
G54D14*
X685800Y228600D02*
X749300Y228600D01*
G54D16*
X584200Y660400D02*
X558800Y660400D01*
X558800Y711200D01*
G54D16*
X635000Y660400D02*
X660400Y660400D01*
G54D15*
X787400Y736600D02*
X787400Y838200D01*
X889000Y762000D02*
G54D11*
D03*
X939800Y762000D02*
G54D11*
D03*
G54D15*
X889000Y762000D02*
X838200Y762000D01*
G54D15*
X939800Y762000D02*
X977900Y762000D01*
G54D16*
X508000Y927100D02*
X482600Y927100D01*
X927100Y469900D02*
G54D11*
D03*
X901700Y469900D02*
G54D11*
D03*
G54D16*
X838200Y406400D02*
X812800Y406400D01*
X812800Y495300D01*
X901700Y495300D01*
X901700Y469900D01*
G54D16*
X927100Y469900D02*
X977900Y469900D01*
G54D16*
X533400Y152400D02*
X533400Y127000D01*
G54D16*
X558800Y152400D02*
X558800Y127000D01*
G54D16*
X584200Y152400D02*
X584200Y127000D01*
G54D16*
X609600Y152400D02*
X609600Y127000D01*
G54D16*
X533400Y99000D02*
X533400Y76200D01*
G54D16*
X558800Y99000D02*
X558800Y76200D01*
G54D16*
X584200Y99000D02*
X584200Y76200D01*
G54D16*
X609600Y99000D02*
X609600Y76200D01*
X533400Y76200D02*
G54D17*
D03*
X558800Y76200D02*
G54D17*
D03*
X584200Y76200D02*
G54D17*
D03*
X609600Y76200D02*
G54D17*
D03*
X508000Y76200D02*
G54D17*
D03*
G54D16*
X279400Y419100D02*
X279400Y393700D01*
G54D16*
X711200Y533400D02*
X685800Y533400D01*
X685800Y635000D01*
G54D16*
X736600Y533400D02*
X736600Y584200D01*
X711200Y584200D01*
G54D16*
X139700Y368300D02*
X177800Y368300D01*
G54D16*
X139700Y469900D02*
X127000Y469900D01*
X88900Y508000D01*
X88900Y533400D01*
G54D15*
X381000Y787400D02*
X381000Y673100D01*
G54D16*
X381000Y571500D02*
X381000Y495700D01*
G54D16*
X381000Y470700D02*
X331000Y470700D01*
X330200Y469900D01*
G54D15*
X330200Y546100D02*
X355600Y546100D01*
X356000Y545700D01*
X356000Y672700D01*
X355600Y673100D01*
X330200Y673100D01*
G54D16*
X228600Y673100D02*
X292100Y673100D01*
X292100Y635000D01*
X292100Y596900D01*
X304800Y584200D01*
X304800Y508000D01*
X292100Y495300D01*
X330200Y495300D01*
G54D16*
X114300Y609600D02*
X114300Y660400D01*
X177800Y660400D01*
X177800Y685800D01*
G54D15*
X177800Y495300D02*
X139700Y495300D01*
X139700Y571500D01*
X25400Y571500D01*
G54D16*
X254000Y444500D02*
X292100Y444500D01*
X292100Y469900D01*
X330200Y469900D01*
G54D16*
X63500Y609600D02*
X63500Y660400D01*
X88900Y660400D01*
X88900Y746125D01*
G54D15*
X76200Y469900D02*
X25400Y469900D01*
G54D16*
X76200Y444500D02*
X177800Y444500D01*
G54D16*
X76200Y419100D02*
X177800Y419100D01*
G54D16*
X76200Y393700D02*
X177800Y393700D01*
G54D15*
X254000Y546100D02*
X228600Y546100D01*
X228600Y495300D01*
X177798Y495303D01*
G54D16*
X177800Y469900D02*
X266700Y469900D01*
X266700Y508000D01*
X279400Y520700D01*
X279400Y571500D01*
X266700Y584200D01*
G54D16*
X241300Y711200D02*
X266700Y711200D01*
G54D14*
X330200Y419100D02*
X381000Y419100D01*
G54D14*
X330200Y393700D02*
X342900Y406400D01*
X381000Y406400D01*
G54D16*
X76200Y368300D02*
X114300Y368300D01*
G54D16*
X76200Y304800D02*
X114300Y304800D01*
X292100Y495300D02*
G54D23*
D03*
G54D16*
X307400Y419100D02*
X330200Y419100D01*
G54D16*
X307400Y393700D02*
X330200Y393700D01*
G54D16*
X279400Y393700D02*
X279400Y355600D01*
X292100Y355600D01*
G54D22*
X381000Y431800D02*
X406400Y431800D01*
G54D16*
X381000Y292100D02*
X368300Y292100D01*
X368300Y226700D01*
G54D16*
X330200Y266700D02*
X368300Y266700D01*
G54D15*
X355600Y609600D02*
X406400Y609600D01*
X406400Y431800D01*
G54D22*
X381000Y368300D02*
X381000Y393700D01*
G54D15*
X394650Y240350D02*
X406400Y241300D01*
X406400Y431800D01*
G54D15*
X76200Y330200D02*
X25400Y330200D01*
G54D16*
X76200Y279400D02*
X133350Y279400D01*
X133350Y317500D01*
X177800Y317500D01*
G54D16*
X76200Y254000D02*
X152400Y254000D01*
X152400Y292100D01*
X177800Y292100D01*
G54D16*
X279400Y355600D02*
X279400Y292100D01*
G54D16*
X311100Y292100D02*
X330200Y292100D01*
G36*
X795400Y728600D02*
X779400Y728600D01*
X779400Y744600D01*
X795400Y744600D01*
X795400Y728600D01*
G37*
X762000Y736600D02*
G54D10*
D03*
G36*
X795400Y703200D02*
X779400Y703200D01*
X779400Y719200D01*
X795400Y719200D01*
X795400Y703200D01*
G37*
X762000Y711200D02*
G54D10*
D03*
G36*
X795400Y677800D02*
X779400Y677800D01*
X779400Y693800D01*
X795400Y693800D01*
X795400Y677800D01*
G37*
X762000Y685800D02*
G54D10*
D03*
G36*
X703200Y541400D02*
X719200Y541400D01*
X719200Y525400D01*
X703200Y525400D01*
X703200Y541400D01*
G37*
X736600Y533400D02*
G54D10*
D03*
G36*
X740300Y263000D02*
X758300Y263000D01*
X758300Y245000D01*
X740300Y245000D01*
X740300Y263000D01*
G37*
X774700Y254000D02*
G54D11*
D03*
G36*
X740300Y237600D02*
X758300Y237600D01*
X758300Y219600D01*
X740300Y219600D01*
X740300Y237600D01*
G37*
X774700Y228600D02*
G54D11*
D03*
X469900Y76200D02*
G54D11*
D03*
X368300Y76200D02*
G54D11*
D03*
X508000Y711200D02*
G54D10*
D03*
X863600Y927100D02*
G54D10*
D03*
X838200Y431800D02*
G54D10*
D03*
X609600Y596900D02*
G54D10*
D03*
X508000Y927100D02*
G54D10*
D03*
X76200Y469900D02*
G54D10*
D03*
X76200Y330200D02*
G54D10*
D03*
X177798Y495303D02*
G54D10*
D03*
X330200Y546100D02*
G54D10*
D03*
G54D16*
X177800Y444500D02*
X196850Y444500D01*
G54D16*
X177800Y419100D02*
X196850Y419100D01*
G54D16*
X224850Y444500D02*
X224850Y419100D01*
X279400Y419100D01*
X394650Y240350D02*
G54D10*
D03*
G54D16*
X369168Y177666D02*
X368300Y127000D01*
X304800Y127000D01*
X305668Y284832D01*
X311100Y292100D01*
G54D16*
X393700Y101600D02*
X393700Y38100D01*
X368300Y38100D01*
G54D16*
X368300Y76200D02*
X368300Y100299D01*
X369168Y101166D01*
X304800Y76200D02*
G54D12*
D03*
X330200Y76200D02*
G54D12*
D03*
G54D16*
X323850Y76200D02*
X368300Y76200D01*
G54D16*
X304800Y76200D02*
X304800Y38100D01*
X381000Y38100D01*
G54D16*
X394668Y177666D02*
X394668Y240332D01*
X394650Y240350D01*
X228600Y152400D02*
G54D11*
D03*
X330200Y152400D02*
G54D11*
D03*
G54D16*
X330200Y152400D02*
X330200Y215900D01*
G36*
X173100Y160400D02*
X173100Y144400D01*
X157100Y144400D01*
X157100Y160400D01*
X173100Y160400D01*
G37*
X139600Y152400D02*
G54D10*
D03*
X165100Y75900D02*
G54D10*
D03*
X139600Y75900D02*
G54D10*
D03*
X482600Y635000D02*
G54D12*
D03*
X482600Y762000D02*
G54D12*
D03*
X660400Y734000D02*
G54D24*
D03*
X660400Y762000D02*
G54D24*
D03*
X660400Y706000D02*
G54D24*
D03*
X660400Y734000D02*
G54D24*
D03*
G54D16*
X609600Y711200D02*
X609600Y736600D01*
X657800Y736600D01*
X660400Y734000D01*
G54D16*
X660400Y706000D02*
X678300Y706000D01*
X685800Y698500D01*
X685800Y635000D01*
G54D16*
X660400Y762000D02*
X660400Y800100D01*
X723900Y800100D01*
X723900Y838200D01*
X723900Y876300D01*
X838200Y876300D01*
X939800Y203200D02*
G54D17*
D03*
X939800Y228600D02*
G54D17*
D03*
X939800Y254000D02*
G54D17*
D03*
X939800Y279400D02*
G54D17*
D03*
X939800Y177800D02*
G54D17*
D03*
X939800Y152400D02*
G54D17*
D03*
X889000Y419100D02*
G54D11*
D03*
X939800Y419100D02*
G54D11*
D03*
X965200Y838200D02*
G54D12*
D03*
X914400Y838200D02*
G54D12*
D03*
X914400Y584200D02*
G54D12*
D03*
X914400Y533400D02*
G54D12*
D03*
X787400Y838200D02*
G54D12*
D03*
X838200Y838200D02*
G54D12*
D03*
X812806Y838200D02*
G54D12*
D03*
X508000Y851300D02*
G54D10*
D03*
X583000Y851300D02*
G54D10*
D03*
X583000Y826300D02*
G54D10*
D03*
X583000Y801300D02*
G54D10*
D03*
X583000Y876300D02*
G54D10*
D03*
X508000Y826300D02*
G54D10*
D03*
X508000Y801300D02*
G54D10*
D03*
G36*
X516000Y868300D02*
X500000Y868300D01*
X500000Y884300D01*
X516000Y884300D01*
X516000Y868300D01*
G37*
X254000Y444500D02*
G54D11*
D03*
X254000Y546100D02*
G54D11*
D03*
X292100Y635000D02*
G54D23*
D03*
X635000Y355600D02*
G54D11*
D03*
X635000Y406400D02*
G54D10*
D03*
X228600Y635000D02*
G54D10*
D03*
X177800Y635000D02*
G54D10*
D03*
G54D16*
X228600Y635000D02*
X228600Y673100D01*
X558800Y152400D02*
G54D17*
D03*
X584200Y152400D02*
G54D17*
D03*
X609600Y152400D02*
G54D17*
D03*
X635000Y152400D02*
G54D17*
D03*
X533400Y152400D02*
G54D17*
D03*
X508000Y152400D02*
G54D17*
D03*
X584200Y228600D02*
G54D17*
D03*
X558800Y228600D02*
G54D17*
D03*
X533400Y228600D02*
G54D17*
D03*
X508000Y228600D02*
G54D17*
D03*
X609600Y228600D02*
G54D17*
D03*
X584200Y482600D02*
G54D17*
D03*
X558800Y482600D02*
G54D17*
D03*
X533400Y482600D02*
G54D17*
D03*
X508000Y482600D02*
G54D17*
D03*
X508000Y406400D02*
G54D17*
D03*
X533400Y406400D02*
G54D17*
D03*
X558800Y406400D02*
G54D17*
D03*
X584200Y406400D02*
G54D17*
D03*
G54D16*
X165100Y75900D02*
X215600Y75900D01*
X215900Y76200D01*
G54D16*
X139600Y75900D02*
X139600Y38200D01*
X139700Y38100D01*
X241300Y38100D01*
X241300Y76200D01*
G54D16*
X228600Y152400D02*
X228600Y127000D01*
X139700Y127000D01*
X139700Y152300D01*
X139600Y152400D01*
X215600Y75900D02*
G54D17*
D03*
X241000Y75900D02*
G54D17*
D03*
X266400Y75900D02*
G54D17*
D03*
X673100Y838200D02*
G54D12*
D03*
X723900Y838200D02*
G54D12*
D03*
X698506Y838200D02*
G54D12*
D03*
X749300Y927100D02*
G54D17*
D03*
X723900Y927100D02*
G54D17*
D03*
G54D16*
X673100Y838200D02*
X673100Y901700D01*
X749300Y901700D01*
X749300Y927100D01*
G54D15*
X723900Y927100D02*
X723900Y965200D01*
G54D25*
X365088Y389945D02*
X361755Y394945D01*
X361755Y381612D01*
G54D26*
G75*
G01X371475Y388938D02*
G03X371475Y388938I-9525J0D01*
G01*
G54D25*
X263805Y254317D02*
X265138Y254317D01*
X266472Y255150D01*
X267138Y256817D01*
X267138Y258483D01*
X266472Y260150D01*
X265138Y260983D01*
X263805Y260983D01*
X262472Y260150D01*
X261805Y258483D01*
X261805Y256817D01*
X262472Y255150D01*
X263805Y254317D01*
X262472Y253483D01*
X261805Y251817D01*
X261805Y250150D01*
X262472Y248483D01*
X263805Y247650D01*
X265138Y247650D01*
X266472Y248483D01*
X267138Y250150D01*
X267138Y251817D01*
X266472Y253483D01*
X265138Y254317D01*
G54D25*
X257138Y255150D02*
X251805Y247650D01*
G54D25*
X257138Y247650D02*
X251805Y255150D01*
G54D25*
X243138Y247650D02*
X243138Y260983D01*
X247138Y252650D01*
X247138Y250983D01*
X241805Y250983D01*
G54D25*
X237138Y247650D02*
X237138Y260983D01*
G54D25*
X235138Y252650D02*
X233138Y247650D01*
G54D25*
X237138Y250983D02*
X233138Y255150D01*
G54D25*
X228472Y260983D02*
X223138Y260983D01*
X223805Y259317D01*
X225138Y256817D01*
X226472Y253483D01*
X227138Y250983D01*
X227138Y247650D01*
G54D25*
X667608Y100012D02*
X667608Y113346D01*
X671608Y105012D01*
X671608Y103346D01*
X666274Y103346D01*
G54D25*
X661608Y107512D02*
X656274Y100012D01*
G54D25*
X661608Y100012D02*
X656274Y107512D01*
G54D25*
X647608Y100012D02*
X647608Y113346D01*
X651608Y105012D01*
X651608Y103346D01*
X646274Y103346D01*
G54D25*
X641608Y113346D02*
X636274Y113346D01*
X636941Y111679D01*
X638274Y109179D01*
X639608Y105846D01*
X640274Y103346D01*
X640274Y100012D01*
G54D25*
X626274Y110846D02*
X626274Y102512D01*
X626941Y100846D01*
X628274Y100012D01*
X629608Y100012D01*
X630941Y100846D01*
X631608Y102512D01*
X631608Y110846D01*
X630941Y112512D01*
X629608Y113346D01*
X628274Y113346D01*
X626941Y112512D01*
X626274Y110846D01*
G54D25*
X444500Y553711D02*
X431167Y553711D01*
X431167Y550378D01*
X432000Y549044D01*
X433667Y548378D01*
X442000Y548378D01*
X443667Y549044D01*
X444500Y550378D01*
X444500Y553711D01*
G54D25*
X444500Y543711D02*
X431167Y543711D01*
X431167Y540378D01*
X432000Y539044D01*
X433667Y538378D01*
X442000Y538378D01*
X443667Y539044D01*
X444500Y540378D01*
X444500Y543711D01*
G54D25*
X444500Y528378D02*
X444500Y533711D01*
X443667Y533711D01*
X442000Y533044D01*
X437000Y529044D01*
X435333Y528378D01*
X433667Y528378D01*
X432000Y529044D01*
X431167Y530378D01*
X431167Y531711D01*
X432000Y533044D01*
X433667Y533711D01*
G54D25*
X444500Y518911D02*
X431167Y515578D01*
X444500Y512244D01*
G54D25*
X439500Y517578D02*
X439500Y513578D01*
G54D25*
X444500Y503577D02*
X431167Y503577D01*
G54D25*
X439167Y503577D02*
X437500Y504244D01*
X437000Y505577D01*
X437500Y506910D01*
X439167Y507577D01*
X442500Y507577D01*
X444167Y506910D01*
X444500Y505577D01*
X444167Y504244D01*
X442500Y503577D01*
G54D25*
X437000Y494910D02*
X444500Y494910D01*
G54D25*
X442833Y494910D02*
X444167Y495577D01*
X444500Y496910D01*
X444167Y498243D01*
X442833Y498910D01*
X437000Y498910D01*
G54D25*
X444500Y490243D02*
X437000Y490243D01*
G54D25*
X438333Y490243D02*
X437000Y488910D01*
X437500Y487576D01*
X438667Y486910D01*
X444500Y486910D01*
G54D25*
X438333Y486910D02*
X437000Y485576D01*
X437500Y484243D01*
X438667Y483576D01*
X444500Y483576D01*
G54D25*
X436167Y478909D02*
X431167Y475576D01*
X444500Y475576D01*
G54D25*
X444500Y465576D02*
X444500Y470909D01*
X443667Y470909D01*
X442000Y470242D01*
X437000Y466242D01*
X435333Y465576D01*
X433667Y465576D01*
X432000Y466242D01*
X431167Y467576D01*
X431167Y468909D01*
X432000Y470242D01*
X433667Y470909D01*
G54D25*
X431167Y455576D02*
X431167Y460909D01*
X437000Y460909D01*
X437000Y460242D01*
X436167Y458909D01*
X436167Y457576D01*
X437000Y456242D01*
X438667Y455576D01*
X442000Y455576D01*
X443667Y456242D01*
X444500Y457576D01*
X444500Y458909D01*
X443667Y460242D01*
X442000Y460909D01*
G54D25*
X433667Y445576D02*
X442000Y445576D01*
X443667Y446242D01*
X444500Y447576D01*
X444500Y448909D01*
X443667Y450242D01*
X442000Y450909D01*
X433667Y450909D01*
X432000Y450242D01*
X431167Y448909D01*
X431167Y447576D01*
X432000Y446242D01*
X433667Y445576D01*
X307400Y292100D02*
G54D24*
D03*
X279400Y292100D02*
G54D24*
D03*
X307400Y393700D02*
G54D24*
D03*
X279400Y393700D02*
G54D24*
D03*
X307400Y419100D02*
G54D24*
D03*
X279400Y419100D02*
G54D24*
D03*
X224850Y444500D02*
G54D24*
D03*
X196850Y444500D02*
G54D24*
D03*
X224850Y419100D02*
G54D24*
D03*
X196850Y419100D02*
G54D24*
D03*
X224850Y317500D02*
G54D24*
D03*
X196850Y317500D02*
G54D24*
D03*
X224850Y292100D02*
G54D24*
D03*
X196850Y292100D02*
G54D24*
D03*
G54D16*
X224850Y419100D02*
X224850Y317500D01*
X224850Y292100D01*
G54D16*
X177800Y317500D02*
X196850Y317500D01*
G54D16*
X177800Y292100D02*
X196850Y292100D01*
G54D16*
X224850Y292100D02*
X279400Y292100D01*
X224850Y393700D02*
G54D24*
D03*
X196850Y393700D02*
G54D24*
D03*
G54D16*
X177800Y393700D02*
X196850Y393700D01*
X533400Y101600D02*
G54D24*
D03*
X533400Y129600D02*
G54D24*
D03*
X558800Y101600D02*
G54D24*
D03*
X558800Y129600D02*
G54D24*
D03*
X584200Y101600D02*
G54D24*
D03*
X584200Y129600D02*
G54D24*
D03*
X609600Y101600D02*
G54D24*
D03*
X609600Y129600D02*
G54D24*
D03*
G54D16*
X660400Y762000D02*
X660400Y734000D01*
M02*
