; Drill file
; Format: 2.4 (00.0000)
M48
INCH
T01C0.0157
T02C0.0315
T03C0.0551
T04C0.1181
%
G05
G90
T01
X011500Y014000
X011500Y019500
X011500Y025000
X017250Y013000
X018250Y011500
X017750Y011000
X022000Y011500
X023000Y011000
T02
X005500Y002990
X006500Y002990
X008490Y002990
X009490Y002990
X010490Y002990
X012000Y003000
X013000Y003000
X014500Y003000
X014500Y004000
X015500Y004000
X014500Y001500
X018500Y001500
X018500Y003000
X020000Y003000
X021000Y003000
X022000Y003000
X023000Y003000
X024000Y003000
X024000Y006000
X023000Y006000
X022000Y006000
X021000Y006000
X020000Y006000
X020000Y009000
X021000Y009000
X022000Y009000
X023000Y009000
X024000Y009000
X027000Y009000
X027000Y008000
X027000Y007000
X027000Y006000
X027000Y005000
X027000Y004000
X025000Y006000
X027000Y010000
X027000Y011000
X027000Y012000
X027000Y013000
X027000Y014000
X027000Y015000
X027000Y016000
X027000Y017000
X027000Y018000
X025000Y016000
X025000Y014000
X023000Y013000
X022000Y013000
X021000Y013000
X020000Y013000
X020000Y016000
X021000Y016000
X022000Y016000
X023000Y016000
X023000Y019000
X022000Y019000
X021000Y019000
X020000Y019000
X022000Y021500
X022000Y022500
X022000Y023500
X021000Y025000
X019000Y025000
X020000Y028000
X021000Y028000
X022000Y028000
X023000Y028000
X024000Y028000
X024500Y030000
X023000Y030000
X022950Y031550
X022950Y032530
X022950Y033520
X022950Y034500
X024000Y036500
X026000Y036500
X028500Y036500
X029500Y036500
X033000Y036500
X034000Y036500
X033000Y033000
X032000Y033000
X031000Y033000
X028500Y033000
X027500Y033000
X026500Y033000
X024500Y032000
X028000Y030000
X028000Y029000
X028000Y028000
X028000Y027000
X028000Y026000
X028000Y025000
X028000Y024000
X028000Y023000
X028000Y021000
X029000Y021000
X026000Y022000
X024000Y021500
X024000Y022500
X024000Y023500
X025000Y026000
X026000Y026000
X023000Y026000
X019000Y030000
X020000Y031550
X020000Y032530
X020000Y033520
X020000Y034500
X020000Y036500
X021000Y036500
X015000Y037000
X013000Y037000
X009500Y033000
X007000Y033000
X005750Y033000
X007000Y031000
X005750Y029000
X004500Y031000
X007000Y027000
X007000Y025000
X009000Y025000
X009000Y026500
X009500Y028000
X010500Y028000
X013000Y026500
X015000Y026500
X015000Y022500
X015000Y020500
X015000Y019520
X015000Y018530
X013000Y018500
X013000Y017500
X013000Y016500
X013000Y015500
X013000Y014500
X013000Y013500
X013000Y012500
X013000Y011500
X013000Y010500
X013000Y009500
X013000Y008500
X014500Y008930
X014500Y010000
X015540Y009460
X015000Y011500
X015000Y014500
X013000Y019500
X013000Y020500
X013000Y021500
X013000Y022500
X010500Y023000
X010000Y021500
X007000Y021500
X007000Y020500
X007000Y019500
X007000Y018500
X007000Y017500
X007000Y016500
X007000Y015500
X007000Y014500
X007000Y013500
X007000Y012500
X007000Y011500
X007000Y010500
X007000Y009500
X007000Y008500
X006500Y006000
X005500Y006000
X009000Y006000
X013000Y006000
X014500Y007010
X015500Y007010
X010000Y017500
X005500Y018500
X003000Y018500
X003000Y017500
X003000Y016500
X003000Y015500
X003000Y014500
X004500Y014500
X005500Y014500
X004500Y012000
X003000Y012000
X003000Y011000
X003000Y010000
X003000Y013000
X003500Y021000
X002500Y021000
X004500Y021000
X007000Y022500
X004500Y024000
X003500Y024000
X002500Y024000
X011000Y031000
X015000Y031000
X007000Y037000
X004500Y037000
X030000Y029000
X031000Y029000
X031000Y028000
X030000Y028000
X030000Y027000
X031000Y027000
X033000Y027000
X033000Y028000
X033000Y029000
X033000Y030000
X035000Y030000
X037000Y030000
X037000Y028000
X037000Y027000
X037000Y026000
X037000Y025000
X036000Y023000
X036000Y021000
X036500Y018500
X035500Y018500
X035000Y016500
X035000Y015000
X035000Y014000
X035000Y013000
X035000Y012000
X035000Y011000
X035000Y010000
X035000Y009000
X035000Y008000
X035000Y007000
X035000Y006000
X033000Y006000
X033000Y007000
X033000Y008000
X033000Y009000
X033000Y010000
X033000Y011000
X033000Y012000
X033000Y013000
X033000Y014000
X033000Y015000
X033000Y016000
X033000Y017000
X033000Y018000
X037000Y016500
X037000Y011000
X037000Y010000
X037000Y009000
X037000Y008000
X037000Y007000
X037000Y006000
X033000Y005000
X033000Y004000
X030500Y009000
X030500Y010000
X029500Y010000
X029500Y009000
X033000Y023000
X033000Y024000
X033000Y025000
X033000Y026000
X036000Y033000
X038000Y033000
T03
X002000Y028000
X002020Y029560
X002000Y031110
X002020Y032670
T04
X001970Y001970
X037400Y001970
X037400Y037400
X002000Y037500
M30
