%FSLAX34Y34*%
%MOMM*%
%LNSILK_BOTTOM*%
G71*
G01*
%ADD10C, 0.000*%
%ADD11C, 0.150*%
%ADD12C, 0.206*%
%ADD13C, 0.144*%
%LPD*%
G54D10*
G75*
G01X401375Y396094D02*
G03X401375Y396094I-5000J0D01*
G01*
G54D11*
X649400Y723000D02*
X671400Y723000D01*
X671400Y773000D01*
X649400Y773000D01*
X649400Y723000D01*
G54D11*
X649400Y695000D02*
X671400Y695000D01*
X671400Y745000D01*
X649400Y745000D01*
X649400Y695000D01*
G54D12*
X636728Y710056D02*
X641350Y710056D01*
X641350Y705000D01*
X640772Y705000D01*
X639617Y705722D01*
X638461Y705722D01*
X637306Y705000D01*
X636728Y703556D01*
X636728Y700667D01*
X637306Y699222D01*
X638461Y698500D01*
X639617Y698500D01*
X640772Y699222D01*
X641350Y700667D01*
G54D12*
X647700Y762872D02*
X644811Y767206D01*
X644811Y755650D01*
G54D12*
X636145Y755650D02*
X640767Y755650D01*
X640767Y756372D01*
X640189Y757817D01*
X636723Y762150D01*
X636145Y763594D01*
X636145Y765039D01*
X636723Y766483D01*
X637878Y767206D01*
X639034Y767206D01*
X640189Y766483D01*
X640767Y765039D01*
G54D11*
X318400Y281100D02*
X318400Y303100D01*
X268400Y303100D01*
X268400Y281100D01*
X318400Y281100D01*
G54D11*
X318400Y382700D02*
X318400Y404700D01*
X268400Y404700D01*
X268400Y382700D01*
X318400Y382700D01*
G54D11*
X318400Y408100D02*
X318400Y430100D01*
X268400Y430100D01*
X268400Y408100D01*
X318400Y408100D01*
G54D11*
X235850Y433500D02*
X235850Y455500D01*
X185850Y455500D01*
X185850Y433500D01*
X235850Y433500D01*
G54D11*
X235850Y408100D02*
X235850Y430100D01*
X185850Y430100D01*
X185850Y408100D01*
X235850Y408100D01*
G54D11*
X235850Y306500D02*
X235850Y328500D01*
X185850Y328500D01*
X185850Y306500D01*
X235850Y306500D01*
G54D11*
X235850Y281100D02*
X235850Y303100D01*
X185850Y303100D01*
X185850Y281100D01*
X235850Y281100D01*
G54D11*
X235850Y382700D02*
X235850Y404700D01*
X185850Y404700D01*
X185850Y382700D01*
X235850Y382700D01*
G54D13*
X162851Y318165D02*
X161118Y316721D01*
X160540Y315276D01*
X160540Y312388D01*
G54D13*
X165162Y312388D02*
X165162Y323943D01*
X162274Y323943D01*
X161118Y323221D01*
X160540Y321776D01*
X160540Y320332D01*
X161118Y318888D01*
X162274Y318165D01*
X165162Y318165D01*
G54D13*
X157362Y319610D02*
X154474Y323943D01*
X154474Y312388D01*
G54D13*
X162375Y291178D02*
X160642Y289733D01*
X160064Y288289D01*
X160064Y285400D01*
G54D13*
X164686Y285400D02*
X164686Y296956D01*
X161797Y296956D01*
X160642Y296233D01*
X160064Y294789D01*
X160064Y293344D01*
X160642Y291900D01*
X161797Y291178D01*
X164686Y291178D01*
G54D13*
X152264Y285400D02*
X156886Y285400D01*
X156886Y286122D01*
X156308Y287567D01*
X152842Y291900D01*
X152264Y293344D01*
X152264Y294789D01*
X152842Y296233D01*
X153997Y296956D01*
X155153Y296956D01*
X156308Y296233D01*
X156886Y294789D01*
G54D13*
X358273Y293242D02*
X356539Y291797D01*
X355962Y290353D01*
X355962Y287464D01*
G54D13*
X360584Y287464D02*
X360584Y299019D01*
X357695Y299019D01*
X356539Y298297D01*
X355962Y296853D01*
X355962Y295408D01*
X356539Y293964D01*
X357695Y293242D01*
X360584Y293242D01*
G54D13*
X352784Y294686D02*
X349895Y299019D01*
X349895Y287464D01*
G54D13*
X342094Y287464D02*
X346717Y287464D01*
X346717Y288186D01*
X346139Y289630D01*
X342672Y293964D01*
X342094Y295408D01*
X342094Y296853D01*
X342672Y298297D01*
X343828Y299019D01*
X344983Y299019D01*
X346139Y298297D01*
X346717Y296853D01*
G54D13*
X358908Y392936D02*
X357174Y391492D01*
X356596Y390048D01*
X356596Y387159D01*
G54D13*
X361219Y387159D02*
X361219Y398714D01*
X358330Y398714D01*
X357174Y397992D01*
X356596Y396548D01*
X356596Y395103D01*
X357174Y393659D01*
X358330Y392936D01*
X361219Y392936D01*
G54D13*
X353419Y394381D02*
X350530Y398714D01*
X350530Y387159D01*
G54D13*
X347352Y389325D02*
X346774Y387881D01*
X345618Y387159D01*
X344463Y387159D01*
X343307Y387881D01*
X342730Y389325D01*
X342730Y392936D01*
X342730Y393659D01*
X344463Y392214D01*
X345618Y392214D01*
X346774Y392936D01*
X347352Y394381D01*
X347352Y396548D01*
X346774Y397992D01*
X345618Y398714D01*
X344463Y398714D01*
X343307Y397992D01*
X342730Y396548D01*
X342730Y392936D01*
G54D13*
X359384Y419924D02*
X357651Y418480D01*
X357073Y417035D01*
X357073Y414146D01*
G54D13*
X361695Y414146D02*
X361695Y425702D01*
X358806Y425702D01*
X357651Y424980D01*
X357073Y423535D01*
X357073Y422091D01*
X357651Y420646D01*
X358806Y419924D01*
X361695Y419924D01*
G54D13*
X353895Y421368D02*
X351006Y425702D01*
X351006Y414146D01*
G54D13*
X344939Y419924D02*
X346095Y419924D01*
X347250Y420646D01*
X347828Y422091D01*
X347828Y423535D01*
X347250Y424980D01*
X346095Y425702D01*
X344939Y425702D01*
X343784Y424980D01*
X343206Y423535D01*
X343206Y422091D01*
X343784Y420646D01*
X344939Y419924D01*
X343784Y419202D01*
X343206Y417757D01*
X343206Y416313D01*
X343784Y414868D01*
X344939Y414146D01*
X346095Y414146D01*
X347250Y414868D01*
X347828Y416313D01*
X347828Y417757D01*
X347250Y419202D01*
X346095Y419924D01*
G54D13*
X164439Y445165D02*
X162706Y443721D01*
X162128Y442276D01*
X162128Y439388D01*
G54D13*
X166750Y439388D02*
X166750Y450943D01*
X163861Y450943D01*
X162706Y450221D01*
X162128Y448776D01*
X162128Y447332D01*
X162706Y445888D01*
X163861Y445165D01*
X166750Y445165D01*
G54D13*
X156061Y445165D02*
X157217Y445165D01*
X158372Y445888D01*
X158950Y447332D01*
X158950Y448776D01*
X158372Y450221D01*
X157217Y450943D01*
X156061Y450943D01*
X154906Y450221D01*
X154328Y448776D01*
X154328Y447332D01*
X154906Y445888D01*
X156061Y445165D01*
X154906Y444443D01*
X154328Y442999D01*
X154328Y441554D01*
X154906Y440110D01*
X156061Y439388D01*
X157217Y439388D01*
X158372Y440110D01*
X158950Y441554D01*
X158950Y442999D01*
X158372Y444443D01*
X157217Y445165D01*
G54D13*
X163486Y419289D02*
X161753Y417845D01*
X161175Y416400D01*
X161175Y413511D01*
G54D13*
X165798Y413511D02*
X165798Y425067D01*
X162909Y425067D01*
X161753Y424345D01*
X161175Y422900D01*
X161175Y421456D01*
X161753Y420011D01*
X162909Y419289D01*
X165798Y419289D01*
G54D13*
X157998Y425067D02*
X153375Y425067D01*
X153953Y423622D01*
X155109Y421456D01*
X156264Y418567D01*
X156842Y416400D01*
X156842Y413511D01*
G54D13*
X162851Y393572D02*
X161118Y392127D01*
X160540Y390683D01*
X160540Y387794D01*
G54D13*
X165162Y387794D02*
X165162Y399349D01*
X162274Y399349D01*
X161118Y398627D01*
X160540Y397183D01*
X160540Y395738D01*
X161118Y394294D01*
X162274Y393572D01*
X165162Y393572D01*
G54D13*
X152740Y397183D02*
X153318Y398627D01*
X154474Y399349D01*
X155629Y399349D01*
X156785Y398627D01*
X157362Y397183D01*
X157362Y393572D01*
X157362Y392849D01*
X155629Y394294D01*
X154474Y394294D01*
X153318Y393572D01*
X152740Y392127D01*
X152740Y389960D01*
X153318Y388516D01*
X154474Y387794D01*
X155629Y387794D01*
X156785Y388516D01*
X157362Y389960D01*
X157362Y393572D01*
G54D11*
X522400Y90600D02*
X544400Y90600D01*
X544400Y140600D01*
X522400Y140600D01*
X522400Y90600D01*
G54D13*
X532160Y39615D02*
X530716Y41348D01*
X529271Y41926D01*
X526382Y41926D01*
G54D13*
X526382Y37304D02*
X537938Y37304D01*
X537938Y40193D01*
X537216Y41348D01*
X535771Y41926D01*
X534327Y41926D01*
X532882Y41348D01*
X532160Y40193D01*
X532160Y37304D01*
G54D13*
X526382Y49726D02*
X526382Y45104D01*
X527105Y45104D01*
X528549Y45682D01*
X532882Y49148D01*
X534327Y49726D01*
X535771Y49726D01*
X537216Y49148D01*
X537938Y47993D01*
X537938Y46837D01*
X537216Y45682D01*
X535771Y45104D01*
G54D13*
X535771Y52904D02*
X537216Y53482D01*
X537938Y54637D01*
X537938Y55793D01*
X537216Y56948D01*
X535771Y57526D01*
X534327Y57526D01*
X532882Y56948D01*
X532160Y55793D01*
X531438Y56948D01*
X529994Y57526D01*
X528549Y57526D01*
X527105Y56948D01*
X526382Y55793D01*
X526382Y54637D01*
X527105Y53482D01*
X528549Y52904D01*
G54D11*
X547800Y90600D02*
X569800Y90600D01*
X569800Y140600D01*
X547800Y140600D01*
X547800Y90600D01*
G54D13*
X557560Y39615D02*
X556116Y41348D01*
X554671Y41926D01*
X551782Y41926D01*
G54D13*
X551782Y37304D02*
X563338Y37304D01*
X563338Y40193D01*
X562616Y41348D01*
X561171Y41926D01*
X559727Y41926D01*
X558282Y41348D01*
X557560Y40193D01*
X557560Y37304D01*
G54D13*
X551782Y49726D02*
X551782Y45104D01*
X552505Y45104D01*
X553949Y45682D01*
X558282Y49148D01*
X559727Y49726D01*
X561171Y49726D01*
X562616Y49148D01*
X563338Y47993D01*
X563338Y46837D01*
X562616Y45682D01*
X561171Y45104D01*
G54D13*
X551782Y56370D02*
X563338Y56370D01*
X556116Y52904D01*
X554671Y52904D01*
X554671Y57526D01*
G54D11*
X573200Y90600D02*
X595200Y90600D01*
X595200Y140600D01*
X573200Y140600D01*
X573200Y90600D01*
G54D13*
X582960Y39615D02*
X581516Y41348D01*
X580071Y41926D01*
X577182Y41926D01*
G54D13*
X577182Y37304D02*
X588738Y37304D01*
X588738Y40193D01*
X588016Y41348D01*
X586571Y41926D01*
X585127Y41926D01*
X583682Y41348D01*
X582960Y40193D01*
X582960Y37304D01*
G54D13*
X577182Y49726D02*
X577182Y45104D01*
X577905Y45104D01*
X579349Y45682D01*
X583682Y49148D01*
X585127Y49726D01*
X586571Y49726D01*
X588016Y49148D01*
X588738Y47993D01*
X588738Y46837D01*
X588016Y45682D01*
X586571Y45104D01*
G54D13*
X588738Y57526D02*
X588738Y52904D01*
X583682Y52904D01*
X583682Y53482D01*
X584405Y54637D01*
X584405Y55793D01*
X583682Y56948D01*
X582238Y57526D01*
X579349Y57526D01*
X577905Y56948D01*
X577182Y55793D01*
X577182Y54637D01*
X577905Y53482D01*
X579349Y52904D01*
G54D11*
X598600Y90600D02*
X620600Y90600D01*
X620600Y140600D01*
X598600Y140600D01*
X598600Y90600D01*
G54D13*
X608360Y39615D02*
X606916Y41348D01*
X605471Y41926D01*
X602582Y41926D01*
G54D13*
X602582Y37304D02*
X614138Y37304D01*
X614138Y40193D01*
X613416Y41348D01*
X611971Y41926D01*
X610527Y41926D01*
X609082Y41348D01*
X608360Y40193D01*
X608360Y37304D01*
G54D13*
X602582Y49726D02*
X602582Y45104D01*
X603305Y45104D01*
X604749Y45682D01*
X609082Y49148D01*
X610527Y49726D01*
X611971Y49726D01*
X613416Y49148D01*
X614138Y47993D01*
X614138Y46837D01*
X613416Y45682D01*
X611971Y45104D01*
G54D13*
X611971Y52904D02*
X613416Y53482D01*
X614138Y54637D01*
X614138Y55793D01*
X613416Y56948D01*
X611971Y57526D01*
X610527Y57526D01*
X609082Y56948D01*
X608360Y55793D01*
X607638Y56948D01*
X606194Y57526D01*
X604749Y57526D01*
X603305Y56948D01*
X602582Y55793D01*
X602582Y54637D01*
X603305Y53482D01*
X604749Y52904D01*
M02*
