%FSLAX34Y34*%
%MOMM*%
%LNSOLDERMASK_TOP*%
G71*
G01*
%ADD10C, 2.200*%
%ADD11C, 2.400*%
%ADD12C, 2.600*%
%ADD13C, 3.600*%
%ADD14C, 2.500*%
%ADD15C, 1.600*%
%ADD16C, 2.200*%
%LPD*%
X330200Y215900D02*
G54D10*
D03*
X330200Y241300D02*
G54D10*
D03*
X330200Y266700D02*
G54D10*
D03*
X330200Y292100D02*
G54D10*
D03*
X330200Y317500D02*
G54D10*
D03*
X330200Y342900D02*
G54D10*
D03*
X330200Y368300D02*
G54D10*
D03*
X330200Y393700D02*
G54D10*
D03*
X330200Y419100D02*
G54D10*
D03*
X330200Y444500D02*
G54D10*
D03*
X330200Y469900D02*
G54D10*
D03*
X330200Y495300D02*
G54D10*
D03*
X330200Y520700D02*
G54D10*
D03*
X330200Y546100D02*
G54D10*
D03*
X330200Y571500D02*
G54D10*
D03*
X177800Y215900D02*
G54D10*
D03*
X177800Y241300D02*
G54D10*
D03*
X177800Y266700D02*
G54D10*
D03*
X177800Y292100D02*
G54D10*
D03*
X177800Y317500D02*
G54D10*
D03*
X177800Y342900D02*
G54D10*
D03*
X177800Y368300D02*
G54D10*
D03*
X177800Y393700D02*
G54D10*
D03*
X177800Y419100D02*
G54D10*
D03*
X177800Y444500D02*
G54D10*
D03*
X177800Y469899D02*
G54D10*
D03*
X177800Y495300D02*
G54D10*
D03*
X177800Y520700D02*
G54D10*
D03*
X177800Y546100D02*
G54D10*
D03*
X177800Y571500D02*
G54D10*
D03*
X330200Y546100D02*
G54D10*
D03*
X177798Y495303D02*
G54D10*
D03*
X368300Y254000D02*
G54D11*
D03*
X368300Y226700D02*
G54D11*
D03*
X394650Y240350D02*
G54D11*
D03*
X381000Y292100D02*
G54D11*
D03*
X381000Y368300D02*
G54D11*
D03*
X177800Y939800D02*
G54D12*
D03*
X177800Y838200D02*
G54D12*
D03*
X146050Y838200D02*
G54D12*
D03*
X146050Y736600D02*
G54D12*
D03*
X114300Y939800D02*
G54D12*
D03*
X114300Y787400D02*
G54D12*
D03*
G36*
X50500Y520400D02*
X50500Y546400D01*
X76500Y546400D01*
X76500Y520400D01*
X50500Y520400D01*
G37*
X88900Y533400D02*
G54D12*
D03*
X114300Y533400D02*
G54D12*
D03*
X63500Y609600D02*
G54D12*
D03*
X88900Y609600D02*
G54D12*
D03*
X114300Y609600D02*
G54D12*
D03*
X50800Y711200D02*
G54D13*
D03*
X51300Y750700D02*
G54D13*
D03*
X50800Y790200D02*
G54D13*
D03*
X51300Y829700D02*
G54D13*
D03*
X381000Y787400D02*
G54D11*
D03*
X279400Y787400D02*
G54D11*
D03*
X241300Y711200D02*
G54D11*
D03*
X241300Y838200D02*
G54D11*
D03*
X266700Y584200D02*
G54D11*
D03*
X266700Y711200D02*
G54D11*
D03*
X177800Y787400D02*
G54D12*
D03*
X177800Y685800D02*
G54D12*
D03*
X381000Y673100D02*
G54D11*
D03*
X381000Y571500D02*
G54D11*
D03*
X139700Y469900D02*
G54D10*
D03*
X139700Y368300D02*
G54D10*
D03*
X381000Y520700D02*
G54D12*
D03*
X381000Y495700D02*
G54D12*
D03*
X381000Y470700D02*
G54D12*
D03*
X114300Y304800D02*
G54D10*
D03*
X114300Y368300D02*
G54D10*
D03*
X838200Y101600D02*
G54D10*
D03*
X838200Y127000D02*
G54D10*
D03*
X838200Y152400D02*
G54D10*
D03*
X838200Y177800D02*
G54D10*
D03*
X838200Y203200D02*
G54D10*
D03*
X838200Y228600D02*
G54D10*
D03*
X838200Y254000D02*
G54D10*
D03*
X838200Y279400D02*
G54D10*
D03*
X838200Y304800D02*
G54D10*
D03*
X838200Y330200D02*
G54D10*
D03*
X838200Y355600D02*
G54D10*
D03*
X838200Y381000D02*
G54D10*
D03*
X838200Y406400D02*
G54D10*
D03*
X838200Y431800D02*
G54D10*
D03*
X838200Y457200D02*
G54D10*
D03*
X685800Y101600D02*
G54D10*
D03*
X685800Y127000D02*
G54D10*
D03*
X685800Y152400D02*
G54D10*
D03*
X685800Y177800D02*
G54D10*
D03*
X685800Y203200D02*
G54D10*
D03*
X685800Y228600D02*
G54D10*
D03*
X685800Y254000D02*
G54D10*
D03*
X685800Y279400D02*
G54D10*
D03*
X685800Y304800D02*
G54D10*
D03*
X685800Y330200D02*
G54D10*
D03*
X685800Y355600D02*
G54D10*
D03*
X685800Y381000D02*
G54D10*
D03*
X685800Y406400D02*
G54D10*
D03*
X685800Y431800D02*
G54D10*
D03*
X685800Y457200D02*
G54D10*
D03*
G36*
X833635Y420800D02*
X827200Y427235D01*
X827200Y436365D01*
X833635Y442800D01*
X842765Y442800D01*
X849200Y436365D01*
X849200Y427235D01*
X842765Y420800D01*
X833635Y420800D01*
G37*
G36*
X681233Y370003D02*
X674798Y376438D01*
X674798Y385568D01*
X681233Y392003D01*
X690363Y392003D01*
X696798Y385568D01*
X696798Y376438D01*
X690363Y370003D01*
X681233Y370003D01*
G37*
X889000Y355600D02*
G54D10*
D03*
X889000Y330200D02*
G54D10*
D03*
X889000Y304800D02*
G54D10*
D03*
X889000Y279400D02*
G54D10*
D03*
X889000Y254000D02*
G54D10*
D03*
X889000Y228600D02*
G54D10*
D03*
X889000Y203200D02*
G54D10*
D03*
X889000Y177800D02*
G54D10*
D03*
X889000Y152400D02*
G54D10*
D03*
X584200Y330200D02*
G54D14*
D03*
X558800Y330200D02*
G54D14*
D03*
X533400Y330200D02*
G54D14*
D03*
X508000Y330200D02*
G54D14*
D03*
X558800Y292100D02*
G54D15*
D03*
X584200Y279400D02*
G54D15*
D03*
X838200Y736600D02*
G54D10*
D03*
X838200Y762000D02*
G54D10*
D03*
X838200Y685800D02*
G54D10*
D03*
X838200Y711200D02*
G54D10*
D03*
X838200Y635000D02*
G54D10*
D03*
X838200Y660400D02*
G54D10*
D03*
X838200Y584200D02*
G54D10*
D03*
X838200Y609600D02*
G54D10*
D03*
X711200Y635000D02*
G54D10*
D03*
X711200Y660400D02*
G54D10*
D03*
X711200Y584200D02*
G54D10*
D03*
X711200Y609600D02*
G54D10*
D03*
X711200Y736600D02*
G54D10*
D03*
X711200Y762000D02*
G54D10*
D03*
X711200Y685800D02*
G54D10*
D03*
X711200Y711200D02*
G54D10*
D03*
X609600Y927100D02*
G54D12*
D03*
X660400Y927100D02*
G54D12*
D03*
X482600Y762000D02*
G54D10*
D03*
X584200Y762000D02*
G54D10*
D03*
X622300Y812800D02*
G54D10*
D03*
X622300Y762000D02*
G54D10*
D03*
X584200Y660400D02*
G54D10*
D03*
X635000Y660400D02*
G54D10*
D03*
X660400Y660400D02*
G54D10*
D03*
X660400Y558800D02*
G54D10*
D03*
X939800Y635000D02*
G54D14*
D03*
X939800Y660400D02*
G54D14*
D03*
X939800Y685800D02*
G54D14*
D03*
X939800Y711200D02*
G54D14*
D03*
X76200Y444500D02*
G54D14*
D03*
X76200Y419100D02*
G54D14*
D03*
X76200Y393700D02*
G54D14*
D03*
X76200Y368300D02*
G54D14*
D03*
X76200Y469900D02*
G54D14*
D03*
X76200Y330200D02*
G54D14*
D03*
X76200Y304800D02*
G54D14*
D03*
X76200Y279400D02*
G54D14*
D03*
X76200Y254000D02*
G54D14*
D03*
X584200Y711200D02*
G54D14*
D03*
X558800Y711200D02*
G54D14*
D03*
X533400Y711200D02*
G54D14*
D03*
X508000Y711200D02*
G54D14*
D03*
X609600Y711200D02*
G54D14*
D03*
X863600Y927100D02*
G54D12*
D03*
X838200Y927100D02*
G54D12*
D03*
G36*
X876000Y394000D02*
X902000Y394000D01*
X902000Y368000D01*
X876000Y368000D01*
X876000Y394000D01*
G37*
X482600Y635000D02*
G54D12*
D03*
X533400Y635000D02*
G54D12*
D03*
X533400Y927100D02*
G54D12*
D03*
X508000Y927100D02*
G54D12*
D03*
X463550Y292100D02*
G54D15*
D03*
X450850Y279400D02*
G54D15*
D03*
X438150Y330200D02*
G54D15*
D03*
X292100Y355600D02*
G54D16*
D03*
G36*
X357300Y90600D02*
X357300Y112600D01*
X379300Y112600D01*
X379300Y90600D01*
X357300Y90600D01*
G37*
X393800Y101600D02*
G54D10*
D03*
X368300Y178100D02*
G54D10*
D03*
X393800Y178100D02*
G54D10*
D03*
X558800Y596900D02*
G54D10*
D03*
X558800Y546100D02*
G54D10*
D03*
X558800Y571500D02*
G54D10*
D03*
X609600Y596900D02*
G54D10*
D03*
X609600Y546100D02*
G54D10*
D03*
X609600Y571500D02*
G54D10*
D03*
G36*
X394000Y952800D02*
X394000Y926800D01*
X368000Y926800D01*
X368000Y952800D01*
X394000Y952800D01*
G37*
G36*
X343200Y952800D02*
X343200Y926800D01*
X317200Y926800D01*
X317200Y952800D01*
X343200Y952800D01*
G37*
G36*
X343200Y686100D02*
X343200Y660100D01*
X317200Y660100D01*
X317200Y686100D01*
X343200Y686100D01*
G37*
G36*
X241600Y686100D02*
X241600Y660100D01*
X215600Y660100D01*
X215600Y686100D01*
X241600Y686100D01*
G37*
X469900Y38100D02*
G54D11*
D03*
X368300Y38100D02*
G54D11*
D03*
X889000Y762000D02*
G54D11*
D03*
X939800Y762000D02*
G54D11*
D03*
X927100Y469900D02*
G54D11*
D03*
X901700Y469900D02*
G54D11*
D03*
X533400Y76200D02*
G54D14*
D03*
X558800Y76200D02*
G54D14*
D03*
X584200Y76200D02*
G54D14*
D03*
X609600Y76200D02*
G54D14*
D03*
X508000Y76200D02*
G54D14*
D03*
X292100Y495300D02*
G54D16*
D03*
G36*
X798400Y725600D02*
X776400Y725600D01*
X776400Y747600D01*
X798400Y747600D01*
X798400Y725600D01*
G37*
X762000Y736600D02*
G54D10*
D03*
G36*
X798400Y700200D02*
X776400Y700200D01*
X776400Y722200D01*
X798400Y722200D01*
X798400Y700200D01*
G37*
X762000Y711200D02*
G54D10*
D03*
G36*
X798400Y674800D02*
X776400Y674800D01*
X776400Y696800D01*
X798400Y696800D01*
X798400Y674800D01*
G37*
X762000Y685800D02*
G54D10*
D03*
G36*
X700200Y544400D02*
X722200Y544400D01*
X722200Y522400D01*
X700200Y522400D01*
X700200Y544400D01*
G37*
X736600Y533400D02*
G54D10*
D03*
G36*
X737300Y266000D02*
X761300Y266000D01*
X761300Y242000D01*
X737300Y242000D01*
X737300Y266000D01*
G37*
X774700Y254000D02*
G54D11*
D03*
G36*
X737300Y240600D02*
X761300Y240600D01*
X761300Y216600D01*
X737300Y216600D01*
X737300Y240600D01*
G37*
X774700Y228600D02*
G54D11*
D03*
X469900Y76200D02*
G54D11*
D03*
X368300Y76200D02*
G54D11*
D03*
X508000Y711200D02*
G54D10*
D03*
X863600Y927100D02*
G54D10*
D03*
X838200Y431800D02*
G54D10*
D03*
X609600Y596900D02*
G54D10*
D03*
X508000Y927100D02*
G54D10*
D03*
X76200Y469900D02*
G54D10*
D03*
X76200Y330200D02*
G54D10*
D03*
X177798Y495303D02*
G54D10*
D03*
X330200Y546100D02*
G54D10*
D03*
X394650Y240350D02*
G54D10*
D03*
X304800Y76200D02*
G54D12*
D03*
X330200Y76200D02*
G54D12*
D03*
X228600Y152400D02*
G54D11*
D03*
X330200Y152400D02*
G54D11*
D03*
G36*
X176100Y163400D02*
X176100Y141400D01*
X154100Y141400D01*
X154100Y163400D01*
X176100Y163400D01*
G37*
X139600Y152400D02*
G54D10*
D03*
X165100Y75900D02*
G54D10*
D03*
X139600Y75900D02*
G54D10*
D03*
X482600Y635000D02*
G54D12*
D03*
X482600Y762000D02*
G54D12*
D03*
X939800Y203200D02*
G54D14*
D03*
X939800Y228600D02*
G54D14*
D03*
X939800Y254000D02*
G54D14*
D03*
X939800Y279400D02*
G54D14*
D03*
X939800Y177800D02*
G54D14*
D03*
X939800Y152400D02*
G54D14*
D03*
X889000Y419100D02*
G54D11*
D03*
X939800Y419100D02*
G54D11*
D03*
X965200Y838200D02*
G54D12*
D03*
X914400Y838200D02*
G54D12*
D03*
X914400Y584200D02*
G54D12*
D03*
X914400Y533400D02*
G54D12*
D03*
X787400Y838200D02*
G54D12*
D03*
X838200Y838200D02*
G54D12*
D03*
X812806Y838200D02*
G54D12*
D03*
X508000Y851300D02*
G54D10*
D03*
X583000Y851300D02*
G54D10*
D03*
X583000Y826300D02*
G54D10*
D03*
X583000Y801300D02*
G54D10*
D03*
X583000Y876300D02*
G54D10*
D03*
X508000Y826300D02*
G54D10*
D03*
X508000Y801300D02*
G54D10*
D03*
G36*
X519000Y865300D02*
X497000Y865300D01*
X497000Y887300D01*
X519000Y887300D01*
X519000Y865300D01*
G37*
X254000Y444500D02*
G54D11*
D03*
X254000Y546100D02*
G54D11*
D03*
X292100Y635000D02*
G54D16*
D03*
X635000Y355600D02*
G54D11*
D03*
X635000Y406400D02*
G54D10*
D03*
X228600Y635000D02*
G54D10*
D03*
X177800Y635000D02*
G54D10*
D03*
X558800Y152400D02*
G54D14*
D03*
X584200Y152400D02*
G54D14*
D03*
X609600Y152400D02*
G54D14*
D03*
X635000Y152400D02*
G54D14*
D03*
X533400Y152400D02*
G54D14*
D03*
X508000Y152400D02*
G54D14*
D03*
X584200Y228600D02*
G54D14*
D03*
X558800Y228600D02*
G54D14*
D03*
X533400Y228600D02*
G54D14*
D03*
X508000Y228600D02*
G54D14*
D03*
X609600Y228600D02*
G54D14*
D03*
X584200Y482600D02*
G54D14*
D03*
X558800Y482600D02*
G54D14*
D03*
X533400Y482600D02*
G54D14*
D03*
X508000Y482600D02*
G54D14*
D03*
X508000Y406400D02*
G54D14*
D03*
X533400Y406400D02*
G54D14*
D03*
X558800Y406400D02*
G54D14*
D03*
X584200Y406400D02*
G54D14*
D03*
X215600Y75900D02*
G54D14*
D03*
X241000Y75900D02*
G54D14*
D03*
X266400Y75900D02*
G54D14*
D03*
X673100Y838200D02*
G54D12*
D03*
X723900Y838200D02*
G54D12*
D03*
X698506Y838200D02*
G54D12*
D03*
X749300Y927100D02*
G54D14*
D03*
X723900Y927100D02*
G54D14*
D03*
M02*
