%FSLAX34Y34*%
%MOMM*%
%LNCOPPER_TOP*%
G71*
G01*
%ADD10C, 2.400*%
%ADD11C, 2.600*%
%ADD12C, 3.200*%
%ADD13C, 3.400*%
%ADD14C, 5.000*%
%ADD15C, 3.000*%
%ADD16C, 2.800*%
%ADD17C, 1.600*%
%ADD18C, 1.400*%
%ADD19C, 2.900*%
%ADD20C, 1.800*%
%ADD21C, 0.150*%
%ADD22C, 2.700*%
%ADD23C, 2.400*%
%ADD24C, 2.200*%
%ADD25C, 1.800*%
%ADD26C, 1.280*%
%ADD27C, 0.965*%
%ADD28C, 0.633*%
%ADD29C, 0.533*%
%ADD30C, 0.667*%
%ADD31C, 0.864*%
%ADD32C, 0.600*%
%ADD33C, 0.994*%
%ADD34C, 1.600*%
%ADD35C, 1.800*%
%ADD36C, 2.000*%
%ADD37C, 3.000*%
%ADD38C, 0.800*%
%ADD39C, 0.400*%
%ADD40C, 1.900*%
%ADD41C, 1.000*%
%ADD42C, 1.600*%
%LPD*%
G36*
X0Y1000000D02*
X1000000Y1000000D01*
X1000000Y0D01*
X0Y0D01*
X0Y1000000D01*
G37*
%LPC*%
X330200Y215900D02*
G54D10*
D03*
X330200Y241300D02*
G54D10*
D03*
X330200Y266700D02*
G54D10*
D03*
X330200Y292100D02*
G54D10*
D03*
X330200Y317500D02*
G54D10*
D03*
X330200Y342900D02*
G54D10*
D03*
X330200Y368300D02*
G54D10*
D03*
X330200Y393700D02*
G54D10*
D03*
X330200Y419100D02*
G54D10*
D03*
X330200Y444500D02*
G54D10*
D03*
X330200Y469900D02*
G54D10*
D03*
X330200Y495300D02*
G54D10*
D03*
X330200Y520700D02*
G54D10*
D03*
X330200Y546100D02*
G54D10*
D03*
X330200Y571500D02*
G54D10*
D03*
X177800Y215900D02*
G54D10*
D03*
X177800Y241300D02*
G54D10*
D03*
X177800Y266700D02*
G54D10*
D03*
X177800Y292100D02*
G54D10*
D03*
X177800Y317500D02*
G54D10*
D03*
X177800Y342900D02*
G54D10*
D03*
X177800Y368300D02*
G54D10*
D03*
X177800Y393700D02*
G54D10*
D03*
X177800Y419100D02*
G54D10*
D03*
X177800Y444500D02*
G54D10*
D03*
X177800Y469899D02*
G54D10*
D03*
X177800Y495300D02*
G54D10*
D03*
X177800Y520700D02*
G54D10*
D03*
X177800Y546100D02*
G54D10*
D03*
X177800Y571500D02*
G54D10*
D03*
X330200Y546100D02*
G54D10*
D03*
X177798Y495303D02*
G54D10*
D03*
X368300Y254000D02*
G54D11*
D03*
X368300Y226700D02*
G54D11*
D03*
X394650Y240350D02*
G54D11*
D03*
X381000Y292100D02*
G54D11*
D03*
X381000Y368300D02*
G54D11*
D03*
X177800Y939800D02*
G54D12*
D03*
X177800Y838200D02*
G54D12*
D03*
X146050Y838200D02*
G54D12*
D03*
X146050Y736600D02*
G54D12*
D03*
X114300Y939800D02*
G54D12*
D03*
X114300Y787400D02*
G54D12*
D03*
G36*
X46500Y516400D02*
X46500Y550400D01*
X80500Y550400D01*
X80500Y516400D01*
X46500Y516400D01*
G37*
X88900Y533400D02*
G54D13*
D03*
X114300Y533400D02*
G54D13*
D03*
X63500Y609600D02*
G54D13*
D03*
X88900Y609600D02*
G54D13*
D03*
X114300Y609600D02*
G54D13*
D03*
X50800Y711200D02*
G54D14*
D03*
X51300Y750700D02*
G54D14*
D03*
X50800Y790200D02*
G54D14*
D03*
X51300Y829700D02*
G54D14*
D03*
X381000Y787400D02*
G54D15*
D03*
X279400Y787400D02*
G54D15*
D03*
X241300Y711200D02*
G54D15*
D03*
X241300Y838200D02*
G54D15*
D03*
X266700Y584200D02*
G54D15*
D03*
X266700Y711200D02*
G54D15*
D03*
X177800Y787400D02*
G54D12*
D03*
X177800Y685800D02*
G54D12*
D03*
X381000Y673100D02*
G54D15*
D03*
X381000Y571500D02*
G54D15*
D03*
X139700Y469900D02*
G54D10*
D03*
X139700Y368300D02*
G54D10*
D03*
X381000Y520700D02*
G54D16*
D03*
X381000Y495700D02*
G54D16*
D03*
X381000Y470700D02*
G54D16*
D03*
X114300Y304800D02*
G54D10*
D03*
X114300Y368300D02*
G54D10*
D03*
G54D17*
X292100Y355600D02*
X292100Y177800D01*
X114300Y177800D01*
X114300Y368300D01*
X838200Y101600D02*
G54D10*
D03*
X838200Y127000D02*
G54D10*
D03*
X838200Y152400D02*
G54D10*
D03*
X838200Y177800D02*
G54D10*
D03*
X838200Y203200D02*
G54D10*
D03*
X838200Y228600D02*
G54D10*
D03*
X838200Y254000D02*
G54D10*
D03*
X838200Y279400D02*
G54D10*
D03*
X838200Y304800D02*
G54D10*
D03*
X838200Y330200D02*
G54D10*
D03*
X838200Y355600D02*
G54D10*
D03*
X838200Y381000D02*
G54D10*
D03*
X838200Y406400D02*
G54D10*
D03*
X838200Y431800D02*
G54D10*
D03*
X838200Y457200D02*
G54D10*
D03*
X685800Y101600D02*
G54D10*
D03*
X685800Y127000D02*
G54D10*
D03*
X685800Y152400D02*
G54D10*
D03*
X685800Y177800D02*
G54D10*
D03*
X685800Y203200D02*
G54D10*
D03*
X685800Y228600D02*
G54D10*
D03*
X685800Y254000D02*
G54D10*
D03*
X685800Y279400D02*
G54D10*
D03*
X685800Y304800D02*
G54D10*
D03*
X685800Y330200D02*
G54D10*
D03*
X685800Y355600D02*
G54D10*
D03*
X685800Y381000D02*
G54D10*
D03*
X685800Y406400D02*
G54D10*
D03*
X685800Y431800D02*
G54D10*
D03*
X685800Y457200D02*
G54D10*
D03*
G36*
X833220Y419800D02*
X826200Y426820D01*
X826200Y436780D01*
X833220Y443800D01*
X843180Y443800D01*
X850200Y436780D01*
X850200Y426820D01*
X843180Y419800D01*
X833220Y419800D01*
G37*
G36*
X680818Y369003D02*
X673798Y376023D01*
X673798Y385983D01*
X680818Y393003D01*
X690778Y393003D01*
X697798Y385983D01*
X697798Y376023D01*
X690778Y369003D01*
X680818Y369003D01*
G37*
X889000Y355600D02*
G54D10*
D03*
X889000Y330200D02*
G54D10*
D03*
X889000Y304800D02*
G54D10*
D03*
X889000Y279400D02*
G54D10*
D03*
X889000Y254000D02*
G54D10*
D03*
X889000Y228600D02*
G54D10*
D03*
X889000Y203200D02*
G54D10*
D03*
X889000Y177800D02*
G54D10*
D03*
X889000Y152400D02*
G54D10*
D03*
G54D18*
X450850Y279400D02*
X666750Y279400D01*
X679450Y266700D01*
X692150Y266700D01*
X704850Y279400D01*
X838200Y279400D01*
G54D18*
X463550Y292100D02*
X825500Y292100D01*
X838200Y304800D01*
X584200Y330200D02*
G54D19*
D03*
X558800Y330200D02*
G54D19*
D03*
X533400Y330200D02*
G54D19*
D03*
X508000Y330200D02*
G54D19*
D03*
X558800Y292100D02*
G54D20*
D03*
X584200Y279400D02*
G54D20*
D03*
G54D18*
X438150Y330200D02*
X508000Y330200D01*
X838200Y736600D02*
G54D10*
D03*
X838200Y762000D02*
G54D10*
D03*
X838200Y685800D02*
G54D10*
D03*
X838200Y711200D02*
G54D10*
D03*
X838200Y635000D02*
G54D10*
D03*
X838200Y660400D02*
G54D10*
D03*
X838200Y584200D02*
G54D10*
D03*
X838200Y609600D02*
G54D10*
D03*
X711200Y635000D02*
G54D10*
D03*
X711200Y660400D02*
G54D10*
D03*
X711200Y584200D02*
G54D10*
D03*
X711200Y609600D02*
G54D10*
D03*
X711200Y736600D02*
G54D10*
D03*
X711200Y762000D02*
G54D10*
D03*
X711200Y685800D02*
G54D10*
D03*
X711200Y711200D02*
G54D10*
D03*
G36*
X920750Y730250D02*
X958850Y730250D01*
X958850Y615950D01*
X920750Y615950D01*
X920750Y730250D01*
G37*
G54D21*
X920750Y730250D02*
X958850Y730250D01*
X958850Y615950D01*
X920750Y615950D01*
X920750Y730250D01*
G36*
X685800Y304800D02*
X838200Y304800D01*
X838200Y266700D01*
X685800Y266700D01*
X685800Y304800D01*
G37*
G54D21*
X685800Y304800D02*
X838200Y304800D01*
X838200Y266700D01*
X685800Y266700D01*
X685800Y304800D01*
X609600Y927100D02*
G54D16*
D03*
X660400Y927100D02*
G54D16*
D03*
X482600Y762000D02*
G54D10*
D03*
X584200Y762000D02*
G54D10*
D03*
X622300Y812800D02*
G54D10*
D03*
X622300Y762000D02*
G54D10*
D03*
X584200Y660400D02*
G54D10*
D03*
X635000Y660400D02*
G54D10*
D03*
X660400Y660400D02*
G54D10*
D03*
X660400Y558800D02*
G54D10*
D03*
X939800Y635000D02*
G54D22*
D03*
X939800Y660400D02*
G54D22*
D03*
X939800Y685800D02*
G54D22*
D03*
X939800Y711200D02*
G54D22*
D03*
X76200Y444500D02*
G54D22*
D03*
X76200Y419100D02*
G54D22*
D03*
X76200Y393700D02*
G54D22*
D03*
X76200Y368300D02*
G54D22*
D03*
X76200Y469900D02*
G54D22*
D03*
X76200Y330200D02*
G54D22*
D03*
X76200Y304800D02*
G54D22*
D03*
X76200Y279400D02*
G54D22*
D03*
X76200Y254000D02*
G54D22*
D03*
X584200Y711200D02*
G54D22*
D03*
X558800Y711200D02*
G54D22*
D03*
X533400Y711200D02*
G54D22*
D03*
X508000Y711200D02*
G54D22*
D03*
X609600Y711200D02*
G54D22*
D03*
X863600Y927100D02*
G54D16*
D03*
X838200Y927100D02*
G54D16*
D03*
G36*
X875000Y395000D02*
X903000Y395000D01*
X903000Y367000D01*
X875000Y367000D01*
X875000Y395000D01*
G37*
X482600Y635000D02*
G54D16*
D03*
X533400Y635000D02*
G54D16*
D03*
X533400Y927100D02*
G54D16*
D03*
X508000Y927100D02*
G54D16*
D03*
X463550Y292100D02*
G54D20*
D03*
X450850Y279400D02*
G54D20*
D03*
X438150Y330200D02*
G54D20*
D03*
X292100Y355600D02*
G54D23*
D03*
G36*
X354300Y87600D02*
X354300Y115600D01*
X382300Y115600D01*
X382300Y87600D01*
X354300Y87600D01*
G37*
X393800Y101600D02*
G54D16*
D03*
X368300Y178100D02*
G54D16*
D03*
X393800Y178100D02*
G54D16*
D03*
X558800Y596900D02*
G54D10*
D03*
X558800Y546100D02*
G54D10*
D03*
X558800Y571500D02*
G54D10*
D03*
X609600Y596900D02*
G54D10*
D03*
X609600Y546100D02*
G54D10*
D03*
X609600Y571500D02*
G54D10*
D03*
G36*
X397000Y955800D02*
X397000Y923800D01*
X365000Y923800D01*
X365000Y955800D01*
X397000Y955800D01*
G37*
G36*
X346200Y955800D02*
X346200Y923800D01*
X314200Y923800D01*
X314200Y955800D01*
X346200Y955800D01*
G37*
G36*
X346200Y689100D02*
X346200Y657100D01*
X314200Y657100D01*
X314200Y689100D01*
X346200Y689100D01*
G37*
G36*
X244600Y689100D02*
X244600Y657100D01*
X212600Y657100D01*
X212600Y689100D01*
X244600Y689100D01*
G37*
X469900Y38100D02*
G54D15*
D03*
X368300Y38100D02*
G54D15*
D03*
X889000Y762000D02*
G54D11*
D03*
X939800Y762000D02*
G54D11*
D03*
X927100Y469900D02*
G54D11*
D03*
X901700Y469900D02*
G54D11*
D03*
X533400Y76200D02*
G54D19*
D03*
X558800Y76200D02*
G54D19*
D03*
X584200Y76200D02*
G54D19*
D03*
X609600Y76200D02*
G54D19*
D03*
X508000Y76200D02*
G54D19*
D03*
X292100Y495300D02*
G54D23*
D03*
G54D17*
X292100Y355600D02*
X292100Y495300D01*
G54D17*
X114300Y368300D02*
X114300Y495300D01*
X63500Y495300D01*
X63500Y533400D01*
G36*
X799400Y724600D02*
X775400Y724600D01*
X775400Y748600D01*
X799400Y748600D01*
X799400Y724600D01*
G37*
X762000Y736600D02*
G54D10*
D03*
G36*
X799400Y699200D02*
X775400Y699200D01*
X775400Y723200D01*
X799400Y723200D01*
X799400Y699200D01*
G37*
X762000Y711200D02*
G54D10*
D03*
G36*
X799400Y673800D02*
X775400Y673800D01*
X775400Y697800D01*
X799400Y697800D01*
X799400Y673800D01*
G37*
X762000Y685800D02*
G54D10*
D03*
G36*
X699200Y545400D02*
X723200Y545400D01*
X723200Y521400D01*
X699200Y521400D01*
X699200Y545400D01*
G37*
X736600Y533400D02*
G54D10*
D03*
G36*
X736300Y267000D02*
X762300Y267000D01*
X762300Y241000D01*
X736300Y241000D01*
X736300Y267000D01*
G37*
X774700Y254000D02*
G54D11*
D03*
G36*
X736300Y241600D02*
X762300Y241600D01*
X762300Y215600D01*
X736300Y215600D01*
X736300Y241600D01*
G37*
X774700Y228600D02*
G54D11*
D03*
X469900Y76200D02*
G54D15*
D03*
X368300Y76200D02*
G54D15*
D03*
G36*
X1000000Y1000000D02*
X1000000Y980000D01*
X0Y980000D01*
X0Y1000000D01*
X1000000Y1000000D01*
G37*
G54D21*
X1000000Y1000000D02*
X1000000Y980000D01*
X0Y980000D01*
X0Y1000000D01*
X1000000Y1000000D01*
G36*
X975000Y1000000D02*
X1000000Y1000000D01*
X1000000Y0D01*
X980000Y0D01*
X980000Y1000000D01*
X975000Y1000000D01*
G37*
G54D21*
X975000Y1000000D02*
X1000000Y1000000D01*
X1000000Y0D01*
X980000Y0D01*
X980000Y1000000D01*
X975000Y1000000D01*
G36*
X1000000Y0D02*
X0Y0D01*
X0Y20000D01*
X1000000Y20000D01*
X1000000Y0D01*
G37*
G54D21*
X1000000Y0D02*
X0Y0D01*
X0Y20000D01*
X1000000Y20000D01*
X1000000Y0D01*
G36*
X25000Y0D02*
X0Y0D01*
X0Y1000000D01*
X20000Y1000000D01*
X20000Y0D01*
X25000Y0D01*
G37*
G54D21*
X25000Y0D02*
X0Y0D01*
X0Y1000000D01*
X20000Y1000000D01*
X20000Y0D01*
X25000Y0D01*
G36*
X95000Y900000D02*
X95000Y1000000D01*
X0Y1000000D01*
X0Y900000D01*
X95000Y900000D01*
G37*
G54D21*
X95000Y900000D02*
X95000Y1000000D01*
X0Y1000000D01*
X0Y900000D01*
X95000Y900000D01*
G36*
X900000Y1000000D02*
X1000000Y1000000D01*
X1000000Y900000D01*
X900000Y900000D01*
X900000Y1000000D01*
G37*
G54D21*
X900000Y1000000D02*
X1000000Y1000000D01*
X1000000Y900000D01*
X900000Y900000D01*
X900000Y1000000D01*
G36*
X1000000Y0D02*
X1000000Y105000D01*
X900000Y105000D01*
X900000Y0D01*
X1000000Y0D01*
G37*
G54D21*
X1000000Y0D02*
X1000000Y105000D01*
X900000Y105000D01*
X900000Y0D01*
X1000000Y0D01*
G36*
X100000Y100000D02*
X100000Y-400D01*
X0Y0D01*
X0Y100000D01*
X100000Y100000D01*
G37*
G54D21*
X100000Y100000D02*
X100000Y-400D01*
X0Y0D01*
X0Y100000D01*
X100000Y100000D01*
G36*
X465000Y1000000D02*
X463650Y99300D01*
X410000Y99300D01*
X410000Y1000000D01*
X465000Y1000000D01*
G37*
G54D21*
X465000Y1000000D02*
X463650Y99300D01*
X410000Y99300D01*
X410000Y1000000D01*
X465000Y1000000D01*
X508000Y711200D02*
G54D11*
D03*
X863600Y927100D02*
G54D11*
D03*
X838200Y431800D02*
G54D11*
D03*
X609600Y596900D02*
G54D11*
D03*
X508000Y927100D02*
G54D11*
D03*
X76200Y469900D02*
G54D11*
D03*
X76200Y330200D02*
G54D11*
D03*
X177798Y495303D02*
G54D11*
D03*
X330200Y546100D02*
G54D11*
D03*
X394650Y240350D02*
G54D11*
D03*
X304800Y76200D02*
G54D16*
D03*
X330200Y76200D02*
G54D16*
D03*
X228600Y152400D02*
G54D15*
D03*
X330200Y152400D02*
G54D15*
D03*
G36*
X179100Y166400D02*
X179100Y138400D01*
X151100Y138400D01*
X151100Y166400D01*
X179100Y166400D01*
G37*
X139600Y152400D02*
G54D16*
D03*
X165100Y75900D02*
G54D16*
D03*
X139600Y75900D02*
G54D16*
D03*
G54D24*
X889000Y762000D02*
X889000Y800100D01*
X977900Y800100D01*
X977900Y114300D01*
X889000Y114300D01*
X889000Y12700D01*
X431800Y12700D01*
X431800Y76200D01*
X469900Y76200D01*
X482600Y635000D02*
G54D12*
D03*
X482600Y762000D02*
G54D12*
D03*
X939800Y203200D02*
G54D19*
D03*
X939800Y228600D02*
G54D19*
D03*
X939800Y254000D02*
G54D19*
D03*
X939800Y279400D02*
G54D19*
D03*
X939800Y177800D02*
G54D19*
D03*
X939800Y152400D02*
G54D19*
D03*
X889000Y419100D02*
G54D11*
D03*
X939800Y419100D02*
G54D11*
D03*
X965200Y838200D02*
G54D16*
D03*
X914400Y838200D02*
G54D16*
D03*
X914400Y584200D02*
G54D16*
D03*
X914400Y533400D02*
G54D16*
D03*
X787400Y838200D02*
G54D16*
D03*
X838200Y838200D02*
G54D16*
D03*
X812806Y838200D02*
G54D16*
D03*
G54D25*
X685800Y355600D02*
X762000Y355600D01*
X762000Y660400D01*
X711200Y660400D01*
X508000Y851300D02*
G54D10*
D03*
X583000Y851300D02*
G54D10*
D03*
X583000Y826300D02*
G54D10*
D03*
X583000Y801300D02*
G54D10*
D03*
X583000Y876300D02*
G54D10*
D03*
X508000Y826300D02*
G54D10*
D03*
X508000Y801300D02*
G54D10*
D03*
G36*
X520000Y864300D02*
X496000Y864300D01*
X496000Y888300D01*
X520000Y888300D01*
X520000Y864300D01*
G37*
X254000Y444500D02*
G54D11*
D03*
X254000Y546100D02*
G54D11*
D03*
G54D17*
X381000Y368300D02*
X355600Y368300D01*
X355600Y635000D01*
X292100Y635000D01*
X292100Y635000D02*
G54D23*
D03*
X635000Y355600D02*
G54D11*
D03*
X635000Y406400D02*
G54D10*
D03*
X228600Y635000D02*
G54D10*
D03*
X177800Y635000D02*
G54D10*
D03*
X558800Y152400D02*
G54D19*
D03*
X584200Y152400D02*
G54D19*
D03*
X609600Y152400D02*
G54D19*
D03*
X635000Y152400D02*
G54D19*
D03*
X533400Y152400D02*
G54D19*
D03*
X508000Y152400D02*
G54D19*
D03*
X584200Y228600D02*
G54D19*
D03*
X558800Y228600D02*
G54D19*
D03*
X533400Y228600D02*
G54D19*
D03*
X508000Y228600D02*
G54D19*
D03*
X609600Y228600D02*
G54D19*
D03*
X584200Y482600D02*
G54D22*
D03*
X558800Y482600D02*
G54D22*
D03*
X533400Y482600D02*
G54D22*
D03*
X508000Y482600D02*
G54D22*
D03*
X508000Y406400D02*
G54D19*
D03*
X533400Y406400D02*
G54D19*
D03*
X558800Y406400D02*
G54D19*
D03*
X584200Y406400D02*
G54D19*
D03*
G54D17*
X165100Y152400D02*
X165100Y177800D01*
G36*
X459581Y152400D02*
X459581Y101600D01*
X0Y101600D01*
X0Y152400D01*
X459581Y152400D01*
G37*
G54D21*
X459581Y152400D02*
X459581Y101600D01*
X0Y101600D01*
X0Y152400D01*
X459581Y152400D01*
X215600Y75900D02*
G54D22*
D03*
X241000Y75900D02*
G54D22*
D03*
X266400Y75900D02*
G54D22*
D03*
G54D17*
X431800Y12700D02*
X266700Y12700D01*
X266700Y75600D01*
X266400Y75900D01*
X673100Y838200D02*
G54D16*
D03*
X723900Y838200D02*
G54D16*
D03*
X698506Y838200D02*
G54D16*
D03*
X749300Y927100D02*
G54D22*
D03*
X723900Y927100D02*
G54D22*
D03*
G54D17*
X558800Y596900D02*
X558800Y635000D01*
X685800Y635000D01*
X685800Y800100D01*
X863600Y800100D01*
X863600Y127000D01*
X838200Y127000D01*
%LPD*%
G54D26*
G36*
X50800Y704800D02*
X25300Y704800D01*
X25300Y717600D01*
X50800Y717600D01*
X50800Y704800D01*
G37*
G36*
X50800Y717600D02*
X76300Y717600D01*
X76300Y704800D01*
X50800Y704800D01*
X50800Y717600D01*
G37*
G36*
X57200Y711200D02*
X57200Y685700D01*
X44400Y685700D01*
X44400Y711200D01*
X57200Y711200D01*
G37*
G54D27*
G36*
X838200Y426973D02*
X825700Y426973D01*
X825700Y436627D01*
X838200Y436627D01*
X838200Y426973D01*
G37*
G36*
X838200Y436627D02*
X850700Y436627D01*
X850700Y426973D01*
X838200Y426973D01*
X838200Y436627D01*
G37*
G54D27*
G36*
X685798Y376177D02*
X673298Y376177D01*
X673298Y385830D01*
X685798Y385830D01*
X685798Y376177D01*
G37*
G36*
X685798Y385830D02*
X698298Y385830D01*
X698298Y376177D01*
X685798Y376177D01*
X685798Y385830D01*
G37*
G54D28*
G36*
X536567Y330200D02*
X536567Y315200D01*
X530233Y315200D01*
X530233Y330200D01*
X536567Y330200D01*
G37*
G36*
X530233Y330200D02*
X530233Y345200D01*
X536567Y345200D01*
X536567Y330200D01*
X530233Y330200D01*
G37*
G54D29*
G36*
X838200Y739267D02*
X850700Y739267D01*
X850700Y733933D01*
X838200Y733933D01*
X838200Y739267D01*
G37*
G36*
X838200Y733933D02*
X825700Y733933D01*
X825700Y739267D01*
X838200Y739267D01*
X838200Y733933D01*
G37*
G54D29*
G36*
X838200Y586867D02*
X850700Y586867D01*
X850700Y581533D01*
X838200Y581533D01*
X838200Y586867D01*
G37*
G36*
X840867Y584200D02*
X840867Y571700D01*
X835533Y571700D01*
X835533Y584200D01*
X840867Y584200D01*
G37*
G36*
X838200Y581533D02*
X825700Y581533D01*
X825700Y586867D01*
X838200Y586867D01*
X838200Y581533D01*
G37*
G36*
X835533Y584200D02*
X835533Y596700D01*
X840867Y596700D01*
X840867Y584200D01*
X835533Y584200D01*
G37*
G54D29*
G36*
X711200Y764667D02*
X723700Y764667D01*
X723700Y759333D01*
X711200Y759333D01*
X711200Y764667D01*
G37*
G36*
X713867Y762000D02*
X713867Y749500D01*
X708533Y749500D01*
X708533Y762000D01*
X713867Y762000D01*
G37*
G36*
X711200Y759333D02*
X698700Y759333D01*
X698700Y764667D01*
X711200Y764667D01*
X711200Y759333D01*
G37*
G36*
X708533Y762000D02*
X708533Y774500D01*
X713867Y774500D01*
X713867Y762000D01*
X708533Y762000D01*
G37*
G54D29*
G36*
X391134Y178100D02*
X391134Y192600D01*
X396467Y192600D01*
X396467Y178100D01*
X391134Y178100D01*
G37*
G36*
X393800Y180767D02*
X408300Y180767D01*
X408300Y175433D01*
X393800Y175433D01*
X393800Y180767D01*
G37*
G36*
X396467Y178100D02*
X396467Y163600D01*
X391134Y163600D01*
X391134Y178100D01*
X396467Y178100D01*
G37*
G54D30*
G36*
X330200Y943133D02*
X346700Y943133D01*
X346700Y936467D01*
X330200Y936467D01*
X330200Y943133D01*
G37*
G36*
X333533Y939800D02*
X333533Y923300D01*
X326867Y923300D01*
X326867Y939800D01*
X333533Y939800D01*
G37*
G36*
X330200Y936467D02*
X313700Y936467D01*
X313700Y943133D01*
X330200Y943133D01*
X330200Y936467D01*
G37*
G36*
X326867Y939800D02*
X326867Y956300D01*
X333533Y956300D01*
X333533Y939800D01*
X326867Y939800D01*
G37*
G54D30*
G36*
X330200Y676433D02*
X346700Y676433D01*
X346700Y669767D01*
X330200Y669767D01*
X330200Y676433D01*
G37*
G36*
X333533Y673100D02*
X333533Y656600D01*
X326867Y656600D01*
X326867Y673100D01*
X333533Y673100D01*
G37*
G36*
X330200Y669767D02*
X313700Y669767D01*
X313700Y676433D01*
X330200Y676433D01*
X330200Y669767D01*
G37*
G36*
X326867Y673100D02*
X326867Y689600D01*
X333533Y689600D01*
X333533Y673100D01*
X326867Y673100D01*
G37*
G54D31*
G36*
X474220Y38100D02*
X474220Y22600D01*
X465580Y22600D01*
X465580Y38100D01*
X474220Y38100D01*
G37*
G36*
X465580Y38100D02*
X465580Y53600D01*
X474220Y53600D01*
X474220Y38100D01*
X465580Y38100D01*
G37*
G36*
X469900Y42420D02*
X485400Y42420D01*
X485400Y33780D01*
X469900Y33780D01*
X469900Y42420D01*
G37*
G54D32*
G36*
X930100Y469900D02*
X930100Y456400D01*
X924100Y456400D01*
X924100Y469900D01*
X930100Y469900D01*
G37*
G36*
X927100Y466900D02*
X913600Y466900D01*
X913600Y472900D01*
X927100Y472900D01*
X927100Y466900D01*
G37*
G36*
X924100Y469900D02*
X924100Y483400D01*
X930100Y483400D01*
X930100Y469900D01*
X924100Y469900D01*
G37*
G36*
X927100Y472900D02*
X940600Y472900D01*
X940600Y466900D01*
X927100Y466900D01*
X927100Y472900D01*
G37*
G54D29*
G36*
X505333Y711200D02*
X505333Y724700D01*
X510667Y724700D01*
X510667Y711200D01*
X505333Y711200D01*
G37*
G36*
X510667Y711200D02*
X510667Y697700D01*
X505333Y697700D01*
X505333Y711200D01*
X510667Y711200D01*
G37*
G36*
X508000Y708533D02*
X494500Y708533D01*
X494500Y713867D01*
X508000Y713867D01*
X508000Y708533D01*
G37*
G54D29*
G36*
X860933Y927100D02*
X860933Y940600D01*
X866267Y940600D01*
X866267Y927100D01*
X860933Y927100D01*
G37*
G36*
X863600Y929767D02*
X877100Y929767D01*
X877100Y924433D01*
X863600Y924433D01*
X863600Y929767D01*
G37*
G36*
X866267Y927100D02*
X866267Y913600D01*
X860933Y913600D01*
X860933Y927100D01*
X866267Y927100D01*
G37*
G54D29*
G36*
X838200Y434467D02*
X851700Y434467D01*
X851700Y429133D01*
X838200Y429133D01*
X838200Y434467D01*
G37*
G36*
X838200Y429133D02*
X824700Y429133D01*
X824700Y434467D01*
X838200Y434467D01*
X838200Y429133D01*
G37*
G54D29*
G36*
X606933Y596900D02*
X606933Y610400D01*
X612267Y610400D01*
X612267Y596900D01*
X606933Y596900D01*
G37*
G36*
X609600Y599567D02*
X623100Y599567D01*
X623100Y594233D01*
X609600Y594233D01*
X609600Y599567D01*
G37*
G36*
X612267Y596900D02*
X612267Y583400D01*
X606933Y583400D01*
X606933Y596900D01*
X612267Y596900D01*
G37*
G36*
X609600Y594233D02*
X596100Y594233D01*
X596100Y599567D01*
X609600Y599567D01*
X609600Y594233D01*
G37*
G54D29*
G36*
X505333Y927100D02*
X505333Y940600D01*
X510667Y940600D01*
X510667Y927100D01*
X505333Y927100D01*
G37*
G36*
X510667Y927100D02*
X510667Y913600D01*
X505333Y913600D01*
X505333Y927100D01*
X510667Y927100D01*
G37*
G36*
X508000Y924433D02*
X494500Y924433D01*
X494500Y929767D01*
X508000Y929767D01*
X508000Y924433D01*
G37*
G54D29*
G36*
X73533Y469900D02*
X73533Y483400D01*
X78867Y483400D01*
X78867Y469900D01*
X73533Y469900D01*
G37*
G36*
X76200Y472567D02*
X89700Y472567D01*
X89700Y467233D01*
X76200Y467233D01*
X76200Y472567D01*
G37*
G36*
X76200Y467233D02*
X62700Y467233D01*
X62700Y472567D01*
X76200Y472567D01*
X76200Y467233D01*
G37*
G54D29*
G36*
X73533Y330200D02*
X73533Y343700D01*
X78867Y343700D01*
X78867Y330200D01*
X73533Y330200D01*
G37*
G36*
X76200Y332867D02*
X89700Y332867D01*
X89700Y327533D01*
X76200Y327533D01*
X76200Y332867D01*
G37*
G36*
X76200Y327533D02*
X62700Y327533D01*
X62700Y332867D01*
X76200Y332867D01*
X76200Y327533D01*
G37*
G54D29*
G36*
X177798Y497970D02*
X191298Y497970D01*
X191298Y492636D01*
X177798Y492636D01*
X177798Y497970D01*
G37*
G36*
X177798Y492636D02*
X164298Y492636D01*
X164298Y497970D01*
X177798Y497970D01*
X177798Y492636D01*
G37*
G54D29*
G36*
X330200Y548767D02*
X343700Y548767D01*
X343700Y543433D01*
X330200Y543433D01*
X330200Y548767D01*
G37*
G36*
X330200Y543433D02*
X316700Y543433D01*
X316700Y548767D01*
X330200Y548767D01*
X330200Y543433D01*
G37*
G54D29*
G36*
X391983Y240350D02*
X391983Y253850D01*
X397317Y253850D01*
X397317Y240350D01*
X391983Y240350D01*
G37*
G36*
X394650Y243017D02*
X408150Y243017D01*
X408150Y237683D01*
X394650Y237683D01*
X394650Y243017D01*
G37*
G36*
X397317Y240350D02*
X397317Y226850D01*
X391983Y226850D01*
X391983Y240350D01*
X397317Y240350D01*
G37*
G36*
X394650Y237683D02*
X381150Y237683D01*
X381150Y243017D01*
X394650Y243017D01*
X394650Y237683D01*
G37*
G54D29*
G36*
X142267Y75900D02*
X142267Y61400D01*
X136933Y61400D01*
X136933Y75900D01*
X142267Y75900D01*
G37*
G36*
X139600Y73233D02*
X125100Y73233D01*
X125100Y78567D01*
X139600Y78567D01*
X139600Y73233D01*
G37*
G36*
X136933Y75900D02*
X136933Y90400D01*
X142267Y90400D01*
X142267Y75900D01*
X136933Y75900D01*
G37*
G54D30*
G36*
X479267Y635000D02*
X479267Y651500D01*
X485933Y651500D01*
X485933Y635000D01*
X479267Y635000D01*
G37*
G36*
X482600Y638333D02*
X499100Y638333D01*
X499100Y631667D01*
X482600Y631667D01*
X482600Y638333D01*
G37*
G36*
X485933Y635000D02*
X485933Y618500D01*
X479267Y618500D01*
X479267Y635000D01*
X485933Y635000D01*
G37*
G36*
X482600Y631667D02*
X466100Y631667D01*
X466100Y638333D01*
X482600Y638333D01*
X482600Y631667D01*
G37*
G54D30*
G36*
X479267Y762000D02*
X479267Y778500D01*
X485933Y778500D01*
X485933Y762000D01*
X479267Y762000D01*
G37*
G36*
X482600Y765333D02*
X499100Y765333D01*
X499100Y758667D01*
X482600Y758667D01*
X482600Y765333D01*
G37*
G36*
X485933Y762000D02*
X485933Y745500D01*
X479267Y745500D01*
X479267Y762000D01*
X485933Y762000D01*
G37*
G36*
X482600Y758667D02*
X466100Y758667D01*
X466100Y765333D01*
X482600Y765333D01*
X482600Y758667D01*
G37*
G54D33*
G36*
X939800Y147428D02*
X924800Y147428D01*
X924800Y157372D01*
X939800Y157372D01*
X939800Y147428D01*
G37*
G36*
X939800Y157372D02*
X954800Y157372D01*
X954800Y147428D01*
X939800Y147428D01*
X939800Y157372D01*
G37*
G36*
X944772Y152400D02*
X944772Y137400D01*
X934828Y137400D01*
X934828Y152400D01*
X944772Y152400D01*
G37*
G54D32*
G36*
X936800Y419100D02*
X936800Y432600D01*
X942800Y432600D01*
X942800Y419100D01*
X936800Y419100D01*
G37*
G36*
X939800Y422100D02*
X953300Y422100D01*
X953300Y416100D01*
X939800Y416100D01*
X939800Y422100D01*
G37*
G36*
X942800Y419100D02*
X942800Y405600D01*
X936800Y405600D01*
X936800Y419100D01*
X942800Y419100D01*
G37*
G36*
X939800Y416100D02*
X926300Y416100D01*
X926300Y422100D01*
X939800Y422100D01*
X939800Y416100D01*
G37*
G54D30*
G36*
X968533Y838200D02*
X968533Y823700D01*
X961867Y823700D01*
X961867Y838200D01*
X968533Y838200D01*
G37*
G36*
X965200Y834867D02*
X950700Y834867D01*
X950700Y841533D01*
X965200Y841533D01*
X965200Y834867D01*
G37*
G36*
X961867Y838200D02*
X961867Y852700D01*
X968533Y852700D01*
X968533Y838200D01*
X961867Y838200D01*
G37*
G36*
X965200Y841533D02*
X979700Y841533D01*
X979700Y834867D01*
X965200Y834867D01*
X965200Y841533D01*
G37*
G54D30*
G36*
X914400Y587533D02*
X928900Y587533D01*
X928900Y580867D01*
X914400Y580867D01*
X914400Y587533D01*
G37*
G36*
X917733Y584200D02*
X917733Y569700D01*
X911067Y569700D01*
X911067Y584200D01*
X917733Y584200D01*
G37*
G36*
X914400Y580867D02*
X899900Y580867D01*
X899900Y587533D01*
X914400Y587533D01*
X914400Y580867D01*
G37*
G36*
X911067Y584200D02*
X911067Y598700D01*
X917733Y598700D01*
X917733Y584200D01*
X911067Y584200D01*
G37*
G54D30*
G36*
X809473Y838200D02*
X809473Y852700D01*
X816139Y852700D01*
X816139Y838200D01*
X809473Y838200D01*
G37*
G36*
X816139Y838200D02*
X816139Y823700D01*
X809473Y823700D01*
X809473Y838200D01*
X816139Y838200D01*
G37*
G54D29*
G36*
X510667Y851300D02*
X510667Y838800D01*
X505333Y838800D01*
X505333Y851300D01*
X510667Y851300D01*
G37*
G36*
X508000Y848633D02*
X495500Y848633D01*
X495500Y853967D01*
X508000Y853967D01*
X508000Y848633D01*
G37*
G36*
X505333Y851300D02*
X505333Y863800D01*
X510667Y863800D01*
X510667Y851300D01*
X505333Y851300D01*
G37*
G36*
X508000Y853967D02*
X520500Y853967D01*
X520500Y848633D01*
X508000Y848633D01*
X508000Y853967D01*
G37*
G54D29*
G36*
X510667Y801300D02*
X510667Y788800D01*
X505333Y788800D01*
X505333Y801300D01*
X510667Y801300D01*
G37*
G36*
X508000Y798633D02*
X495500Y798633D01*
X495500Y803967D01*
X508000Y803967D01*
X508000Y798633D01*
G37*
G36*
X505333Y801300D02*
X505333Y813800D01*
X510667Y813800D01*
X510667Y801300D01*
X505333Y801300D01*
G37*
G36*
X508000Y803967D02*
X520500Y803967D01*
X520500Y798633D01*
X508000Y798633D01*
X508000Y803967D01*
G37*
G54D32*
G36*
X254000Y543100D02*
X240500Y543100D01*
X240500Y549100D01*
X254000Y549100D01*
X254000Y543100D01*
G37*
G36*
X251000Y546100D02*
X251000Y559600D01*
X257000Y559600D01*
X257000Y546100D01*
X251000Y546100D01*
G37*
G36*
X254000Y549100D02*
X267500Y549100D01*
X267500Y543100D01*
X254000Y543100D01*
X254000Y549100D01*
G37*
G36*
X257000Y546100D02*
X257000Y532600D01*
X251000Y532600D01*
X251000Y546100D01*
X257000Y546100D01*
G37*
G54D32*
G36*
X635000Y352600D02*
X621500Y352600D01*
X621500Y358600D01*
X635000Y358600D01*
X635000Y352600D01*
G37*
G36*
X632000Y355600D02*
X632000Y369100D01*
X638000Y369100D01*
X638000Y355600D01*
X632000Y355600D01*
G37*
G36*
X635000Y358600D02*
X648500Y358600D01*
X648500Y352600D01*
X635000Y352600D01*
X635000Y358600D01*
G37*
G36*
X638000Y355600D02*
X638000Y342100D01*
X632000Y342100D01*
X632000Y355600D01*
X638000Y355600D01*
G37*
G54D29*
G36*
X180467Y635000D02*
X180467Y622500D01*
X175133Y622500D01*
X175133Y635000D01*
X180467Y635000D01*
G37*
G36*
X177800Y632333D02*
X165300Y632333D01*
X165300Y637667D01*
X177800Y637667D01*
X177800Y632333D01*
G37*
G36*
X175133Y635000D02*
X175133Y647500D01*
X180467Y647500D01*
X180467Y635000D01*
X175133Y635000D01*
G37*
G36*
X177800Y637667D02*
X190300Y637667D01*
X190300Y632333D01*
X177800Y632333D01*
X177800Y637667D01*
G37*
G54D33*
G36*
X630028Y152400D02*
X630028Y167400D01*
X639972Y167400D01*
X639972Y152400D01*
X630028Y152400D01*
G37*
G36*
X635000Y157372D02*
X650000Y157372D01*
X650000Y147428D01*
X635000Y147428D01*
X635000Y157372D01*
G37*
G36*
X639972Y152400D02*
X639972Y137400D01*
X630028Y137400D01*
X630028Y152400D01*
X639972Y152400D01*
G37*
G54D33*
G36*
X614572Y228600D02*
X614572Y213600D01*
X604628Y213600D01*
X604628Y228600D01*
X614572Y228600D01*
G37*
G36*
X604628Y228600D02*
X604628Y243600D01*
X614572Y243600D01*
X614572Y228600D01*
X604628Y228600D01*
G37*
G36*
X609600Y233572D02*
X624600Y233572D01*
X624600Y223628D01*
X609600Y223628D01*
X609600Y233572D01*
G37*
G54D28*
G36*
X536567Y482600D02*
X536567Y468600D01*
X530233Y468600D01*
X530233Y482600D01*
X536567Y482600D01*
G37*
G36*
X530233Y482600D02*
X530233Y496600D01*
X536567Y496600D01*
X536567Y482600D01*
X530233Y482600D01*
G37*
G54D33*
G36*
X503028Y406400D02*
X503028Y421400D01*
X512972Y421400D01*
X512972Y406400D01*
X503028Y406400D01*
G37*
G36*
X512972Y406400D02*
X512972Y391400D01*
X503028Y391400D01*
X503028Y406400D01*
X512972Y406400D01*
G37*
G36*
X508000Y401428D02*
X493000Y401428D01*
X493000Y411372D01*
X508000Y411372D01*
X508000Y401428D01*
G37*
G54D28*
G36*
X237833Y75900D02*
X237833Y89900D01*
X244167Y89900D01*
X244167Y75900D01*
X237833Y75900D01*
G37*
G36*
X244167Y75900D02*
X244167Y61900D01*
X237833Y61900D01*
X237833Y75900D01*
X244167Y75900D01*
G37*
G54D30*
G36*
X695173Y838200D02*
X695173Y852700D01*
X701839Y852700D01*
X701839Y838200D01*
X695173Y838200D01*
G37*
G36*
X701839Y838200D02*
X701839Y823700D01*
X695173Y823700D01*
X695173Y838200D01*
X701839Y838200D01*
G37*
G54D33*
G36*
X728872Y927100D02*
X728872Y913100D01*
X718928Y913100D01*
X718928Y927100D01*
X728872Y927100D01*
G37*
G36*
X723900Y922128D02*
X709900Y922128D01*
X709900Y932072D01*
X723900Y932072D01*
X723900Y922128D01*
G37*
G36*
X718928Y927100D02*
X718928Y941100D01*
X728872Y941100D01*
X728872Y927100D01*
X718928Y927100D01*
G37*
X330200Y215900D02*
G54D34*
D03*
X330200Y241300D02*
G54D34*
D03*
X330200Y266700D02*
G54D34*
D03*
X330200Y292100D02*
G54D34*
D03*
X330200Y317500D02*
G54D34*
D03*
X330200Y342900D02*
G54D34*
D03*
X330200Y368300D02*
G54D34*
D03*
X330200Y393700D02*
G54D34*
D03*
X330200Y419100D02*
G54D34*
D03*
X330200Y444500D02*
G54D34*
D03*
X330200Y469900D02*
G54D34*
D03*
X330200Y495300D02*
G54D34*
D03*
X330200Y520700D02*
G54D34*
D03*
X330200Y546100D02*
G54D34*
D03*
X330200Y571500D02*
G54D34*
D03*
X177800Y215900D02*
G54D34*
D03*
X177800Y241300D02*
G54D34*
D03*
X177800Y266700D02*
G54D34*
D03*
X177800Y292100D02*
G54D34*
D03*
X177800Y317500D02*
G54D34*
D03*
X177800Y342900D02*
G54D34*
D03*
X177800Y368300D02*
G54D34*
D03*
X177800Y393700D02*
G54D34*
D03*
X177800Y419100D02*
G54D34*
D03*
X177800Y444500D02*
G54D34*
D03*
X177800Y469899D02*
G54D34*
D03*
X177800Y495300D02*
G54D34*
D03*
X177800Y520700D02*
G54D34*
D03*
X177800Y546100D02*
G54D34*
D03*
X177800Y571500D02*
G54D34*
D03*
X330200Y546100D02*
G54D34*
D03*
X177798Y495303D02*
G54D34*
D03*
X368300Y254000D02*
G54D35*
D03*
X368300Y226700D02*
G54D35*
D03*
X394650Y240350D02*
G54D35*
D03*
X381000Y292100D02*
G54D35*
D03*
X381000Y368300D02*
G54D35*
D03*
X177800Y939800D02*
G54D36*
D03*
X177800Y838200D02*
G54D36*
D03*
X146050Y838200D02*
G54D36*
D03*
X146050Y736600D02*
G54D36*
D03*
X114300Y939800D02*
G54D36*
D03*
X114300Y787400D02*
G54D36*
D03*
G36*
X53500Y523400D02*
X53500Y543400D01*
X73500Y543400D01*
X73500Y523400D01*
X53500Y523400D01*
G37*
X88900Y533400D02*
G54D36*
D03*
X114300Y533400D02*
G54D36*
D03*
X63500Y609600D02*
G54D36*
D03*
X88900Y609600D02*
G54D36*
D03*
X114300Y609600D02*
G54D36*
D03*
X50800Y711200D02*
G54D37*
D03*
X51300Y750700D02*
G54D37*
D03*
X50800Y790200D02*
G54D37*
D03*
X51300Y829700D02*
G54D37*
D03*
X381000Y787400D02*
G54D35*
D03*
X279400Y787400D02*
G54D35*
D03*
X241300Y711200D02*
G54D35*
D03*
X241300Y838200D02*
G54D35*
D03*
X266700Y584200D02*
G54D35*
D03*
X266700Y711200D02*
G54D35*
D03*
X177800Y787400D02*
G54D36*
D03*
X177800Y685800D02*
G54D36*
D03*
X381000Y673100D02*
G54D35*
D03*
X381000Y571500D02*
G54D35*
D03*
X139700Y469900D02*
G54D34*
D03*
X139700Y368300D02*
G54D34*
D03*
X381000Y520700D02*
G54D36*
D03*
X381000Y495700D02*
G54D36*
D03*
X381000Y470700D02*
G54D36*
D03*
X114300Y304800D02*
G54D34*
D03*
X114300Y368300D02*
G54D34*
D03*
G54D38*
X292100Y355600D02*
X292100Y177800D01*
X114300Y177800D01*
X114300Y368300D01*
X838200Y101600D02*
G54D34*
D03*
X838200Y127000D02*
G54D34*
D03*
X838200Y152400D02*
G54D34*
D03*
X838200Y177800D02*
G54D34*
D03*
X838200Y203200D02*
G54D34*
D03*
X838200Y228600D02*
G54D34*
D03*
X838200Y254000D02*
G54D34*
D03*
X838200Y279400D02*
G54D34*
D03*
X838200Y304800D02*
G54D34*
D03*
X838200Y330200D02*
G54D34*
D03*
X838200Y355600D02*
G54D34*
D03*
X838200Y381000D02*
G54D34*
D03*
X838200Y406400D02*
G54D34*
D03*
X838200Y431800D02*
G54D34*
D03*
X838200Y457200D02*
G54D34*
D03*
X685800Y101600D02*
G54D34*
D03*
X685800Y127000D02*
G54D34*
D03*
X685800Y152400D02*
G54D34*
D03*
X685800Y177800D02*
G54D34*
D03*
X685800Y203200D02*
G54D34*
D03*
X685800Y228600D02*
G54D34*
D03*
X685800Y254000D02*
G54D34*
D03*
X685800Y279400D02*
G54D34*
D03*
X685800Y304800D02*
G54D34*
D03*
X685800Y330200D02*
G54D34*
D03*
X685800Y355600D02*
G54D34*
D03*
X685800Y381000D02*
G54D34*
D03*
X685800Y406400D02*
G54D34*
D03*
X685800Y431800D02*
G54D34*
D03*
X685800Y457200D02*
G54D34*
D03*
G36*
X834880Y423800D02*
X830200Y428480D01*
X830200Y435120D01*
X834880Y439800D01*
X841520Y439800D01*
X846200Y435120D01*
X846200Y428480D01*
X841520Y423800D01*
X834880Y423800D01*
G37*
G36*
X682478Y373003D02*
X677798Y377683D01*
X677798Y384323D01*
X682478Y389003D01*
X689118Y389003D01*
X693798Y384323D01*
X693798Y377683D01*
X689118Y373003D01*
X682478Y373003D01*
G37*
X889000Y355600D02*
G54D34*
D03*
X889000Y330200D02*
G54D34*
D03*
X889000Y304800D02*
G54D34*
D03*
X889000Y279400D02*
G54D34*
D03*
X889000Y254000D02*
G54D34*
D03*
X889000Y228600D02*
G54D34*
D03*
X889000Y203200D02*
G54D34*
D03*
X889000Y177800D02*
G54D34*
D03*
X889000Y152400D02*
G54D34*
D03*
G54D39*
X450850Y279400D02*
X666750Y279400D01*
X679450Y266700D01*
X692150Y266700D01*
X704850Y279400D01*
X838200Y279400D01*
G54D39*
X463550Y292100D02*
X825500Y292100D01*
X838200Y304800D01*
X584200Y330200D02*
G54D40*
D03*
X558800Y330200D02*
G54D40*
D03*
X533400Y330200D02*
G54D40*
D03*
X508000Y330200D02*
G54D40*
D03*
X558800Y292100D02*
G54D41*
D03*
X584200Y279400D02*
G54D41*
D03*
G54D39*
X438150Y330200D02*
X508000Y330200D01*
X838200Y736600D02*
G54D34*
D03*
X838200Y762000D02*
G54D34*
D03*
X838200Y685800D02*
G54D34*
D03*
X838200Y711200D02*
G54D34*
D03*
X838200Y635000D02*
G54D34*
D03*
X838200Y660400D02*
G54D34*
D03*
X838200Y584200D02*
G54D34*
D03*
X838200Y609600D02*
G54D34*
D03*
X711200Y635000D02*
G54D34*
D03*
X711200Y660400D02*
G54D34*
D03*
X711200Y584200D02*
G54D34*
D03*
X711200Y609600D02*
G54D34*
D03*
X711200Y736600D02*
G54D34*
D03*
X711200Y762000D02*
G54D34*
D03*
X711200Y685800D02*
G54D34*
D03*
X711200Y711200D02*
G54D34*
D03*
X609600Y927100D02*
G54D36*
D03*
X660400Y927100D02*
G54D36*
D03*
X482600Y762000D02*
G54D34*
D03*
X584200Y762000D02*
G54D34*
D03*
X622300Y812800D02*
G54D34*
D03*
X622300Y762000D02*
G54D34*
D03*
X584200Y660400D02*
G54D34*
D03*
X635000Y660400D02*
G54D34*
D03*
X660400Y660400D02*
G54D34*
D03*
X660400Y558800D02*
G54D34*
D03*
X939800Y635000D02*
G54D40*
D03*
X939800Y660400D02*
G54D40*
D03*
X939800Y685800D02*
G54D40*
D03*
X939800Y711200D02*
G54D40*
D03*
X76200Y444500D02*
G54D40*
D03*
X76200Y419100D02*
G54D40*
D03*
X76200Y393700D02*
G54D40*
D03*
X76200Y368300D02*
G54D40*
D03*
X76200Y469900D02*
G54D40*
D03*
X76200Y330200D02*
G54D40*
D03*
X76200Y304800D02*
G54D40*
D03*
X76200Y279400D02*
G54D40*
D03*
X76200Y254000D02*
G54D40*
D03*
X584200Y711200D02*
G54D40*
D03*
X558800Y711200D02*
G54D40*
D03*
X533400Y711200D02*
G54D40*
D03*
X508000Y711200D02*
G54D40*
D03*
X609600Y711200D02*
G54D40*
D03*
X863600Y927100D02*
G54D36*
D03*
X838200Y927100D02*
G54D36*
D03*
G36*
X879000Y391000D02*
X899000Y391000D01*
X899000Y371000D01*
X879000Y371000D01*
X879000Y391000D01*
G37*
X482600Y635000D02*
G54D36*
D03*
X533400Y635000D02*
G54D36*
D03*
X533400Y927100D02*
G54D36*
D03*
X508000Y927100D02*
G54D36*
D03*
X463550Y292100D02*
G54D41*
D03*
X450850Y279400D02*
G54D41*
D03*
X438150Y330200D02*
G54D41*
D03*
X292100Y355600D02*
G54D42*
D03*
G36*
X360300Y93600D02*
X360300Y109600D01*
X376300Y109600D01*
X376300Y93600D01*
X360300Y93600D01*
G37*
X393800Y101600D02*
G54D34*
D03*
X368300Y178100D02*
G54D34*
D03*
X393800Y178100D02*
G54D34*
D03*
X558800Y596900D02*
G54D34*
D03*
X558800Y546100D02*
G54D34*
D03*
X558800Y571500D02*
G54D34*
D03*
X609600Y596900D02*
G54D34*
D03*
X609600Y546100D02*
G54D34*
D03*
X609600Y571500D02*
G54D34*
D03*
G36*
X391000Y949800D02*
X391000Y929800D01*
X371000Y929800D01*
X371000Y949800D01*
X391000Y949800D01*
G37*
G36*
X340200Y949800D02*
X340200Y929800D01*
X320200Y929800D01*
X320200Y949800D01*
X340200Y949800D01*
G37*
G36*
X340200Y683100D02*
X340200Y663100D01*
X320200Y663100D01*
X320200Y683100D01*
X340200Y683100D01*
G37*
G36*
X238600Y683100D02*
X238600Y663100D01*
X218600Y663100D01*
X218600Y683100D01*
X238600Y683100D01*
G37*
X469900Y38100D02*
G54D35*
D03*
X368300Y38100D02*
G54D35*
D03*
X889000Y762000D02*
G54D35*
D03*
X939800Y762000D02*
G54D35*
D03*
X927100Y469900D02*
G54D35*
D03*
X901700Y469900D02*
G54D35*
D03*
X533400Y76200D02*
G54D40*
D03*
X558800Y76200D02*
G54D40*
D03*
X584200Y76200D02*
G54D40*
D03*
X609600Y76200D02*
G54D40*
D03*
X508000Y76200D02*
G54D40*
D03*
X292100Y495300D02*
G54D42*
D03*
G54D38*
X292100Y355600D02*
X292100Y495300D01*
G54D38*
X114300Y368300D02*
X114300Y495300D01*
X63500Y495300D01*
X63500Y533400D01*
G36*
X795400Y728600D02*
X779400Y728600D01*
X779400Y744600D01*
X795400Y744600D01*
X795400Y728600D01*
G37*
X762000Y736600D02*
G54D34*
D03*
G36*
X795400Y703200D02*
X779400Y703200D01*
X779400Y719200D01*
X795400Y719200D01*
X795400Y703200D01*
G37*
X762000Y711200D02*
G54D34*
D03*
G36*
X795400Y677800D02*
X779400Y677800D01*
X779400Y693800D01*
X795400Y693800D01*
X795400Y677800D01*
G37*
X762000Y685800D02*
G54D34*
D03*
G36*
X703200Y541400D02*
X719200Y541400D01*
X719200Y525400D01*
X703200Y525400D01*
X703200Y541400D01*
G37*
X736600Y533400D02*
G54D34*
D03*
G36*
X740300Y263000D02*
X758300Y263000D01*
X758300Y245000D01*
X740300Y245000D01*
X740300Y263000D01*
G37*
X774700Y254000D02*
G54D35*
D03*
G36*
X740300Y237600D02*
X758300Y237600D01*
X758300Y219600D01*
X740300Y219600D01*
X740300Y237600D01*
G37*
X774700Y228600D02*
G54D35*
D03*
X469900Y76200D02*
G54D35*
D03*
X368300Y76200D02*
G54D35*
D03*
X508000Y711200D02*
G54D34*
D03*
X863600Y927100D02*
G54D34*
D03*
X838200Y431800D02*
G54D34*
D03*
X609600Y596900D02*
G54D34*
D03*
X508000Y927100D02*
G54D34*
D03*
X76200Y469900D02*
G54D34*
D03*
X76200Y330200D02*
G54D34*
D03*
X177798Y495303D02*
G54D34*
D03*
X330200Y546100D02*
G54D34*
D03*
X394650Y240350D02*
G54D34*
D03*
X304800Y76200D02*
G54D36*
D03*
X330200Y76200D02*
G54D36*
D03*
X228600Y152400D02*
G54D35*
D03*
X330200Y152400D02*
G54D35*
D03*
G36*
X173100Y160400D02*
X173100Y144400D01*
X157100Y144400D01*
X157100Y160400D01*
X173100Y160400D01*
G37*
X139600Y152400D02*
G54D34*
D03*
X165100Y75900D02*
G54D34*
D03*
X139600Y75900D02*
G54D34*
D03*
G54D38*
X889000Y762000D02*
X889000Y800100D01*
X977900Y800100D01*
X977900Y114300D01*
X889000Y114300D01*
X889000Y12700D01*
X431800Y12700D01*
X431800Y76200D01*
X469900Y76200D01*
X482600Y635000D02*
G54D36*
D03*
X482600Y762000D02*
G54D36*
D03*
X939800Y203200D02*
G54D40*
D03*
X939800Y228600D02*
G54D40*
D03*
X939800Y254000D02*
G54D40*
D03*
X939800Y279400D02*
G54D40*
D03*
X939800Y177800D02*
G54D40*
D03*
X939800Y152400D02*
G54D40*
D03*
X889000Y419100D02*
G54D35*
D03*
X939800Y419100D02*
G54D35*
D03*
X965200Y838200D02*
G54D36*
D03*
X914400Y838200D02*
G54D36*
D03*
X914400Y584200D02*
G54D36*
D03*
X914400Y533400D02*
G54D36*
D03*
X787400Y838200D02*
G54D36*
D03*
X838200Y838200D02*
G54D36*
D03*
X812806Y838200D02*
G54D36*
D03*
G54D38*
X685800Y355600D02*
X762000Y355600D01*
X762000Y660400D01*
X711200Y660400D01*
X508000Y851300D02*
G54D34*
D03*
X583000Y851300D02*
G54D34*
D03*
X583000Y826300D02*
G54D34*
D03*
X583000Y801300D02*
G54D34*
D03*
X583000Y876300D02*
G54D34*
D03*
X508000Y826300D02*
G54D34*
D03*
X508000Y801300D02*
G54D34*
D03*
G36*
X516000Y868300D02*
X500000Y868300D01*
X500000Y884300D01*
X516000Y884300D01*
X516000Y868300D01*
G37*
X254000Y444500D02*
G54D35*
D03*
X254000Y546100D02*
G54D35*
D03*
G54D38*
X381000Y368300D02*
X355600Y368300D01*
X355600Y635000D01*
X292100Y635000D01*
X292100Y635000D02*
G54D42*
D03*
X635000Y355600D02*
G54D35*
D03*
X635000Y406400D02*
G54D34*
D03*
X228600Y635000D02*
G54D34*
D03*
X177800Y635000D02*
G54D34*
D03*
X558800Y152400D02*
G54D40*
D03*
X584200Y152400D02*
G54D40*
D03*
X609600Y152400D02*
G54D40*
D03*
X635000Y152400D02*
G54D40*
D03*
X533400Y152400D02*
G54D40*
D03*
X508000Y152400D02*
G54D40*
D03*
X584200Y228600D02*
G54D40*
D03*
X558800Y228600D02*
G54D40*
D03*
X533400Y228600D02*
G54D40*
D03*
X508000Y228600D02*
G54D40*
D03*
X609600Y228600D02*
G54D40*
D03*
X584200Y482600D02*
G54D40*
D03*
X558800Y482600D02*
G54D40*
D03*
X533400Y482600D02*
G54D40*
D03*
X508000Y482600D02*
G54D40*
D03*
X508000Y406400D02*
G54D40*
D03*
X533400Y406400D02*
G54D40*
D03*
X558800Y406400D02*
G54D40*
D03*
X584200Y406400D02*
G54D40*
D03*
G54D38*
X165100Y152400D02*
X165100Y177800D01*
X215600Y75900D02*
G54D40*
D03*
X241000Y75900D02*
G54D40*
D03*
X266400Y75900D02*
G54D40*
D03*
G54D38*
X431800Y12700D02*
X266700Y12700D01*
X266700Y75600D01*
X266400Y75900D01*
X673100Y838200D02*
G54D36*
D03*
X723900Y838200D02*
G54D36*
D03*
X698506Y838200D02*
G54D36*
D03*
X749300Y927100D02*
G54D40*
D03*
X723900Y927100D02*
G54D40*
D03*
G54D38*
X558800Y596900D02*
X558800Y635000D01*
X685800Y635000D01*
X685800Y800100D01*
X863600Y800100D01*
X863600Y127000D01*
X838200Y127000D01*
M02*
